<?xml version="1.0" encoding="UTF-8" standalone="no"?>
<svg
   xmlns:dc="http://purl.org/dc/elements/1.1/"
   xmlns:cc="http://creativecommons.org/ns#"
   xmlns:rdf="http://www.w3.org/1999/02/22-rdf-syntax-ns#"
   xmlns:svg="http://www.w3.org/2000/svg"
   xmlns="http://www.w3.org/2000/svg"
   xmlns:sodipodi="http://sodipodi.sourceforge.net/DTD/sodipodi-0.dtd"
   xmlns:inkscape="http://www.inkscape.org/namespaces/inkscape"
   data-v-3d3003f2=""
   data-v-3745d992=""
   test="uk"
   version="1.1"
   x="0px"
   y="0px"
   viewBox="0 0 1000 268.81351"
   xml:space="preserve"
   class="logo"
   id="svg15330"
   sodipodi:docname="a.svg"
   width="1000"
   height="268.81351"
   inkscape:version="0.92.4 (5da689c313, 2019-01-14)"><metadata
   id="metadata15336"><rdf:RDF><cc:Work
       rdf:about=""><dc:format>image/svg+xml</dc:format><dc:type
         rdf:resource="http://purl.org/dc/dcmitype/StillImage" /><dc:title></dc:title></cc:Work></rdf:RDF></metadata><defs
   id="defs15334" /><sodipodi:namedview
   pagecolor="#ffffff"
   bordercolor="#666666"
   borderopacity="1"
   objecttolerance="10"
   gridtolerance="10"
   guidetolerance="10"
   inkscape:pageopacity="0"
   inkscape:pageshadow="2"
   inkscape:window-width="1920"
   inkscape:window-height="1017"
   id="namedview15332"
   showgrid="false"
   fit-margin-top="0"
   fit-margin-left="0"
   fit-margin-right="0"
   fit-margin-bottom="0"
   inkscape:zoom="0.88656191"
   inkscape:cx="656.6191"
   inkscape:cy="83.332149"
   inkscape:window-x="1912"
   inkscape:window-y="-8"
   inkscape:window-maximized="1"
   inkscape:current-layer="g15328" /><g
   data-v-3d3003f2=""
   class="logo__clipper"
   id="g15276"
   transform="matrix(7.9062799,0,0,7.9062799,-7.779389,-7.9062799)"><path
   data-v-3d3003f2=""
   d="m 17.2,13.9 c 0.5,0.1 1,0 1.3,-0.1 0.1,0.1 0.1,0.1 0.3,0.2 -0.1,1 -0.3,2.2 -0.8,3.3 0,0.1 -0.1,0.3 -0.2,0.5 -0.1,0.2 -0.3,0.6 -0.3,0.6 -0.2,0.3 -0.8,0.9 -1.4,1.6 -0.1,0.1 -0.4,0.2 -0.6,0.4 -0.1,0.1 -0.4,0.3 -0.7,0.5 -0.2,0.1 -0.6,0.2 -0.9,0.5 -0.1,0 -0.2,0 -0.5,0 -0.3,0.1 -0.8,0.2 -1.5,0.4 -0.3,0 -0.8,0.1 -1.5,0.1 0,0 -0.1,0 -0.3,0 -0.1,0 -0.2,0 -0.3,0.1 C 9.7,21.9 9.5,21.8 9.3,21.8 9,21.8 8.8,21.7 8.7,21.7 c -0.3,0 -0.8,-0.1 -1.6,-0.3 0,0 -0.1,-0.1 -0.2,-0.1 0,0 -0.1,0 -0.2,0 C 6.4,21.2 6.1,21.1 5.6,20.8 5,20.5 4.7,20.3 4.6,20.3 4.4,20.1 4.2,19.9 3.9,19.6 3.5,19.3 3.3,19.1 3.2,18.9 3.1,18.7 2.9,18.4 2.5,18.1 2,16.6 1.8,16 1.7,15.9 c 0,0 -0.1,0 -0.1,0 0,-0.1 0,-0.3 -0.1,-0.6 C 1.4,15 1.3,14.8 1.3,14.7 1.2,14.3 1.2,13.8 1.3,13 1.3,12.3 0.9,11.7 1,11.1 1,11 1.1,10.7 1.2,10.4 c 0,-0.1 0,-0.1 0,-0.3 C 1.3,9.7 1.6,9 1.8,7.9 1.9,7.8 2.1,7.5 2.3,6.9 2.6,6.5 2.8,6.2 3,6 3,5.8 3.1,5.7 3.3,5.5 3.5,5.2 3.6,5 3.6,5 3.6,4.9 3.7,4.8 3.7,4.7 3.8,4.6 4,4.4 4.5,3.9 4.7,3.6 5,3.3 5.4,3 5.8,2.8 6.3,2.4 7,1.9 7.1,1.9 7.3,1.9 7.5,1.8 7.7,1.7 8.3,1.7 8.5,1.7 8.5,1.5 8.7,1.5 9,1.4 c 0.3,0 1,-0.1 1,-0.2 0.1,0 0.5,0.1 1.1,0.1 1.2,0.1 2.4,0.9 3.4,2.5 0,-0.4 0,-0.8 0,-1.2 0,-0.5 0,-0.9 0.2,-1.2 0.1,0 0.1,0 0.2,0 0.1,0 0.2,0 0.4,0 0.2,0 0.3,0 0.4,0.1 0.2,0 0.4,0 0.6,-0.1 0,0.1 0.1,0.1 0.2,0.1 0.1,0.1 0.1,0.3 0.1,0.5 l -0.1,0.6 c 0,0.3 0,1 0,2.1 0,0.9 0,1.5 0,2 0,0 0,0.2 0,0.8 0,0.3 0,0.6 -0.1,0.8 0.1,0 -0.1,0 -0.6,0 -0.2,0 -0.4,0 -0.5,0.1 V 8.2 c 0,0 -0.2,0 -0.5,0 -0.2,0 -0.4,0 -0.5,0 C 14.2,8 14.2,7.8 14.2,7.5 c 0,-0.1 0,-0.3 0.1,-0.6 0.1,-0.3 0.1,-0.5 0.1,-0.6 0,-0.1 0,-0.2 0,-0.4 C 14.4,5.8 14.3,5.5 14.2,5.2 14.2,5.1 14.1,4.9 14,4.7 13.8,4.4 13.8,4.4 13.5,3.9 13.5,3.9 13.4,3.8 13.3,3.7 13.2,3.6 13.2,3.6 13.2,3.5 13.1,3.5 12.9,3.4 12.7,3.2 12.6,3 12.2,2.9 12,2.9 11.8,2.8 11.4,2.7 10.2,2.6 9.4,2.5 8.4,2.8 7.8,3.2 7.6,3.3 7.4,3.4 7.2,3.6 7.2,3.7 7,3.8 6.9,3.9 6.8,4.1 6.7,4 6.6,4.4 6.5,4.5 6.4,4.7 6.2,4.9 6.2,5.1 6.1,5.5 6,6.1 5.9,6.4 5.7,6.9 5.5,7.6 5.5,8 5.4,8.5 5.3,9.2 5.2,9.9 5.1,10.6 5.1,11.3 c -0.1,1.3 0.1,2.4 0.4,3.4 -0.1,0.4 0,0.7 0.2,0.8 0.2,0.6 0.4,1.2 0.7,1.9 0.1,0.1 0.4,0.7 1,1.6 0.3,0.2 0.5,0.5 0.8,0.7 0.3,0.3 0.7,0.4 1,0.5 0.4,0.3 0.9,0.4 1.6,0.4 0.4,0 0.9,0 1.3,-0.1 1.5,-0.2 2.5,-0.7 3.1,-1.4 v 0 c 0.2,-0.3 0.5,-0.7 0.7,-1 0.2,-0.4 0.4,-0.8 0.5,-1.1 0,-0.2 0.1,-0.4 0.2,-0.7 0,0 0,-0.1 0,-0.2 0,0 0,-0.1 0,-0.1 0.2,-0.3 0.4,-0.9 0.4,-1.9 0,0 0.1,-0.1 0.2,-0.2 z"
   class="st1"
   id="path15250"
   inkscape:connector-curvature="0" /> <path
   data-v-3d3003f2=""
   d="m 34.5,13.9 c 0,0 0.1,-0.1 0.1,-0.1 0.1,0 0.1,-0.1 0.1,-0.2 0.3,0.1 0.6,0.1 0.8,0 0.1,0.2 0.2,0.4 0.3,0.8 -0.1,0.3 -0.1,0.7 -0.1,1.3 0,0.7 0,1.2 0,1.3 -0.1,1 -0.1,1.5 -0.1,1.6 0,0.1 0.1,0.3 0.1,0.5 0,0.3 -0.1,0.7 -0.1,1.1 0,0.1 0,0.2 0.1,0.3 0,0.1 0,0.2 -0.1,0.3 -1.8,0 -4.3,0.1 -7.5,0.3 -0.1,0 -0.3,0 -0.6,-0.1 -1,0 -1.6,0 -1.9,0 -0.3,-0.1 -0.7,-0.1 -1.3,-0.2 -0.3,0 -0.6,0 -1.2,0 -0.2,-0.1 -0.4,-0.1 -0.7,-0.2 0.2,0 -0.2,0.1 -1.1,0.2 -0.2,0 -0.4,0 -0.8,0 -0.1,0 -0.3,0 -0.6,0.1 -0.3,0 -0.5,0.1 -0.6,0.1 -0.4,0 -0.8,0.1 -1.1,0.2 C 18,21.1 18,21 18,20.8 c 0,-0.3 0,-0.5 0,-0.6 0.1,-0.1 0.1,-0.2 0.2,-0.4 0.1,0 0.2,0 0.3,0.1 0.3,0.1 0.4,0.1 0.5,0.1 0.2,0 0.4,0 0.5,0 0.9,0 1.5,-0.2 1.7,-0.7 0,0 0,-0.1 0,-0.2 0.1,-0.1 0.1,-0.2 0.2,-0.5 0,0 -0.1,-0.1 -0.1,-0.1 0,-0.1 0.1,-0.3 0.1,-0.6 0,-0.1 0,-0.4 0,-0.7 0,-0.1 0.1,-0.4 0.1,-0.6 0,-0.3 0,-0.7 0,-1.2 0,-0.7 0,-1.7 0,-3.2 0,-0.1 0,-0.4 0.1,-0.7 C 21.6,11 21.5,10.2 21.5,9.2 21.5,6.5 21.4,4.5 21.2,3.4 21,3.4 20.9,3.2 20.9,3 20.6,2.9 19.9,2.8 19,2.8 c -0.3,0 -0.5,0 -0.7,-0.1 0,-0.1 0,-0.3 0,-0.5 -0.1,-0.3 -0.1,-0.4 -0.1,-0.5 0,-0.1 0,-0.2 0.1,-0.3 0,0 0.1,0 0.2,-0.1 0.1,0 0.1,-0.1 0,-0.1 0.5,0.1 1.3,0.1 2.3,0.2 0.1,0 0.8,0 2,0 0.1,0.1 0.3,0.1 0.4,0.1 0.1,0 0.3,0 0.5,0 0.2,0 0.4,0 0.5,0 0.1,0 0.2,0 0.3,0.1 0.1,0 0.2,0.1 0.3,0.1 0.2,0 0.5,0 1,-0.1 0.4,-0.1 0.7,-0.1 0.9,-0.1 0.2,0 0.6,0 1,0 0,0 0.1,0 0.1,0.1 0,0 0.1,0.1 0.1,0.1 0.1,-0.1 0.2,-0.1 0.3,-0.1 0.2,0 0.3,0.2 0.3,0.6 0,0.5 -0.1,0.8 -0.2,1 -0.2,0 -0.5,0 -0.9,0.1 -0.1,0 -0.1,0 -0.2,-0.1 0,-0.1 -0.1,-0.1 -0.1,-0.1 -0.2,0 -0.4,0 -0.7,-0.1 C 26.1,2.9 25.9,2.9 25.8,2.9 25.8,2.9 25.7,3 25.6,3 25.5,3 25.5,3 25.4,2.9 25.2,3 25.1,3.4 25,4 c 0,0.2 0,0.7 0,1.5 0,0.6 0,1.1 -0.1,1.4 0.1,0.8 0,1.7 -0.1,2.9 0,0 0,0.1 0,0.1 0,0 0.1,0 0,0.1 0,2.5 0.1,4.6 0.2,6.3 0,0.6 0,1.3 0,1.9 0,0.8 0.1,1.4 0.2,1.9 0,0 0,0.1 0.1,0.3 0,0.1 0,0.2 0,0.3 0.3,0.1 0.4,0 0.5,-0.1 0.5,0 1.2,0 2.2,-0.1 1,-0.1 1.8,-0.1 2.3,-0.1 0.1,0 0.2,-0.1 0.3,-0.1 0.2,0.1 0.5,0.1 0.7,0.1 0.8,0 1.5,-0.2 2.1,-0.6 0,-0.1 0.1,-0.2 0.2,-0.3 0.1,-0.2 0.1,-0.3 0.1,-0.4 0,-0.1 0,-0.1 0,0 0.1,0 0.1,-0.1 0.1,-0.2 0,-0.1 0,-0.1 -0.1,-0.1 0.1,-0.1 0.1,-0.3 0.2,-0.5 0,-0.2 0.1,-0.4 0.1,-0.5 0.2,-1 0.3,-1.9 0.3,-2.8 0.3,-0.6 0.2,-0.8 0.2,-1.1 z"
   class="st1"
   id="path15252"
   inkscape:connector-curvature="0" /> <path
   data-v-3d3003f2=""
   d="m 46,1.3 c 0.1,0.1 0.1,0.1 0.2,0.1 0,0 0.1,0 0.2,-0.1 0.1,0 0.2,-0.1 0.2,-0.1 0,0 0.1,0 0.1,0.1 0.1,0 0.1,0 0.1,0 0.1,0 0.2,0 0.5,-0.1 0.2,-0.1 0.4,-0.1 0.5,-0.1 0.2,0 0.5,0 0.7,-0.1 0.3,0.1 0.4,0.4 0.4,0.9 0,0.5 -0.2,0.8 -0.5,0.9 0,-0.1 -0.1,-0.2 -0.2,-0.3 -0.2,0 -0.5,0 -0.9,0 -0.4,-0.1 -0.7,-0.1 -0.9,-0.1 -0.3,0 -0.6,0.1 -0.9,0.3 0,0.3 0,0.9 0,2 0,0.8 0,2 -0.1,3.5 -0.1,1.6 -0.1,2.8 -0.1,3.5 0,0.7 0,1.3 0.1,1.8 -0.1,0.2 -0.1,0.5 -0.1,0.8 0,0.3 0,0.6 0.1,1.1 0.1,0.6 0.1,1 0.1,1.2 0,0.3 0.1,0.9 0.1,1.5 0,0.5 0,0.7 0,0.8 0.1,0.2 0.2,0.3 0.5,0.4 0.8,0.2 1.4,0.2 1.7,0 0.3,0.2 0.4,0.5 0.4,1 0,0.3 -0.1,0.5 -0.3,0.6 0,0 0,0 0,0.1 -0.1,-0.1 -0.2,0 -0.3,0.1 -0.2,-0.1 -0.4,-0.1 -0.5,0.1 -0.1,0 -0.2,-0.1 -0.4,-0.2 -0.7,0.1 -1.6,0 -2.8,-0.1 -1.4,-0.1 -2.4,-0.2 -2.8,-0.2 -0.9,0 -1.7,0.1 -2.4,0.3 -0.3,-0.1 -0.5,-0.1 -0.5,0.1 0,0 -0.1,-0.1 -0.1,-0.1 0,0 -0.1,0 -0.2,0.1 -0.1,0 -0.2,0.1 -0.2,0.1 -0.1,-0.1 -0.2,-0.2 -0.2,-0.4 0,-0.1 0,-0.1 0,-0.2 0,-0.1 0,-0.2 0,-0.3 0,-0.2 0,-0.3 -0.1,-0.4 0,0 0,0 0.1,-0.1 0.1,-0.1 0.1,-0.1 0.1,-0.2 0.1,0.1 0.2,0.1 0.3,0.1 0.2,0 0.3,0 0.4,0 0,0 0.1,0.1 0.2,0.1 0.3,0 0.9,0 1.7,-0.2 0.3,-0.1 0.5,-0.2 0.8,-0.6 0,-0.1 0,-0.3 0.1,-0.5 0.1,-0.3 0.1,-0.5 0.1,-0.6 0,-0.1 0,-0.2 -0.1,-0.3 0.2,-0.4 0.3,-0.9 0.2,-1.5 0.1,-0.3 0.1,-0.5 0,-0.6 0,-0.1 0,-0.3 0,-0.4 0,-0.1 0,-0.3 -0.1,-0.5 0,-0.3 0,-0.7 0,-1.3 0,-0.7 0.1,-1.1 0.1,-1.3 0,-0.9 0,-2.1 0.1,-3.6 0.1,-1.6 0.1,-2.7 0.1,-3.1 0,-0.4 0,-0.7 0,-1 C 41.5,3.9 41.3,3.6 41,3.5 41,3.4 40.8,3.2 40.6,3.1 40.3,2.9 40.2,2.8 40.1,2.8 c 0,0 -0.1,0.1 -0.2,0.1 0,-0.1 -0.1,-0.1 -0.2,-0.2 -0.2,0 -0.5,0 -0.9,-0.2 C 38.3,2.3 38,2.2 37.9,2.2 c 0,-0.1 0,-0.3 0,-0.5 0,-0.1 0,-0.2 -0.1,-0.4 0,-0.1 0,-0.1 0.1,-0.1 0.1,0 0.1,-0.1 0.1,-0.1 0.1,0.1 0.2,0.1 0.3,0.1 0.1,0 0.2,0 0.3,-0.1 0.5,0 1.2,0 2.2,0.1 0.3,0 0.8,0 1.4,0.1 0.6,0.1 1.1,0.2 1.4,0.2 0.4,0 0.7,-0.1 1,-0.2 0.1,0 0.2,0 0.4,0 0.2,0 0.4,0 0.5,0 0.2,0.1 0.4,0.1 0.5,0 z"
   class="st1"
   id="path15254"
   inkscape:connector-curvature="0" /> <path
   data-v-3d3003f2=""
   d="m 61.3,12.6 c -0.2,0 -0.4,-0.1 -0.6,-0.1 -0.3,0 -0.7,0 -1.2,0.1 -0.5,0.1 -0.9,0.1 -1.1,0.2 0,0.8 0,2 0,3.5 -0.2,1.1 -0.2,2 0,2.6 0.3,0.2 0.6,0.2 1.1,0.3 0.7,0 1.1,0 1.1,0 0,0.4 -0.1,1 -0.3,1.7 -0.1,0 -0.1,0 -0.2,0 -0.2,0 -0.3,0 -0.3,0 -0.1,0 -0.3,0 -0.5,0 -0.7,0 -1.7,0 -3.1,0.1 -0.2,0 -0.7,0.1 -1.2,0.1 -0.1,0 -0.2,0 -0.4,0 -0.2,0 -0.3,0 -0.4,0 -0.2,0 -0.6,0.1 -1.1,0.1 -0.1,0 -0.4,-0.1 -0.8,-0.1 C 51.9,21 51.7,21 51.5,21 c -0.1,0 -0.3,0 -0.6,0.1 -0.3,0 -0.5,0.1 -0.6,0 0,0 -0.1,-0.1 -0.2,-0.2 0,-0.4 0,-0.9 -0.1,-1.3 0.1,0 0.2,0 0.3,0 0.2,0 0.5,0 0.9,0.1 0.4,0.1 0.7,0.1 0.9,0.1 0.9,0 1.3,-0.5 1.4,-1.4 0,-0.2 0.1,-0.6 0.1,-1 0,-0.1 0,-0.3 0,-0.5 0.1,-0.7 0.1,-1.1 0,-1.2 0.1,-0.2 0.1,-0.4 0.1,-0.6 0,-0.1 0,-0.3 0,-0.5 0,-0.2 0,-0.4 0,-0.5 0,-0.3 0,-0.5 0,-0.6 0,-0.1 -0.1,-0.3 0,-0.5 0,-0.3 0,-0.5 0,-0.5 0,-2.1 0,-3.2 0,-3.4 0.1,-2.3 0.2,-3.9 0.1,-4.9 -0.1,-1.1 -0.4,-1.6 -1.1,-1.5 0,0 -0.1,-0.1 -0.2,-0.2 -0.3,0 -0.8,0 -1.6,0.1 -0.1,0 -0.1,-0.2 -0.2,-0.3 0,-0.2 -0.1,-0.3 -0.1,-0.4 0.1,0 0.1,0 0.2,0 0,-0.2 0,-0.4 0.1,-0.8 H 51 c 0.2,0.1 0.6,0.1 1.1,0.3 0.5,-0.1 1.3,-0.1 2.3,-0.1 1,0 1.8,0 2.2,-0.1 0.1,0.1 0.2,0.2 0.4,0.2 0.1,0 0.3,0 0.6,0 0.3,0 0.4,0 0.6,0 1.5,0 2.2,0 2.2,0 0.1,0 0.3,0 0.4,0 0.3,0 0.8,0.1 1.4,0.2 0.9,0.1 1.4,0.2 1.5,0.2 0.3,0 0.6,0 1.1,0.1 0.2,0 0.4,0 0.7,0.1 0.3,0.1 0.6,0.1 0.8,0.1 0.1,0.1 0.3,0.2 0.7,0.4 0.3,0.2 0.5,0.3 0.6,0.6 0.1,0.1 0.2,0.1 0.2,0.1 0.1,0.2 0.2,0.4 0.6,0.6 0.4,0.5 0.6,0.9 0.7,1.3 0.2,1.5 0.2,2.2 0.2,2.2 0,0.2 0,0.3 -0.1,0.5 0,0.1 -0.1,0.4 -0.2,0.7 0,0.2 -0.1,0.5 -0.2,0.9 -1.1,1.2 -2.3,2 -3.5,2.3 -0.2,0 -0.5,0.1 -0.9,0.2 -0.1,0 -0.2,0 -0.4,0.1 -0.4,0 -1,0.1 -1.7,0.2 -0.5,0.1 -1,0.2 -1,0.4 z M 61,11.4 c 0.1,0 0.1,0 0,0 0,-0.1 0,-0.1 0,-0.1 0.3,0 0.5,-0.1 0.8,-0.2 0.4,-0.2 0.6,-0.3 0.7,-0.3 0.1,-0.3 0.2,-0.4 0.4,-0.5 0.4,-0.1 0.6,-0.2 0.6,-0.2 0,0 0.1,-0.1 0.1,-0.2 0.1,0 0.1,-0.1 0.2,-0.1 0.4,-0.5 0.7,-1.3 0.9,-2.4 0.2,-1.2 0.2,-2.2 0,-2.7 C 64.6,4.4 64.5,4.1 64.5,4 64.4,3.8 64.3,3.6 64.2,3.4 63.7,2.9 62.9,2.7 61.9,2.7 61.6,2.5 61,2.4 60.3,2.4 c -0.6,0 -1.2,0 -1.8,0 0,0.2 0,0.4 0,0.8 -0.1,0.5 -0.1,1.2 -0.1,1.9 0,0.4 0,0.9 0.1,1.7 0,0.8 0.1,1.3 0.1,1.7 0,1.4 0,2.6 -0.1,3.6 0.2,0 0.4,0.1 0.6,0.1 0.7,-0.3 1.3,-0.5 1.9,-0.8 z"
   class="st1"
   id="path15256"
   inkscape:connector-curvature="0" /> <path
   data-v-3d3003f2=""
   d="m 79.7,12.7 c -0.2,0 -0.4,-0.1 -0.6,-0.1 -0.3,0 -0.7,0 -1.2,0.1 -0.5,0.1 -0.9,0.1 -1.1,0.2 0,0.8 0,2 0,3.5 -0.2,1.1 -0.2,2 0,2.6 0.3,0.2 0.6,0.2 1.1,0.3 0.7,0 1.1,0 1.1,0 0,0.4 -0.1,1 -0.3,1.7 -0.1,0 -0.1,0 -0.2,0 -0.2,0 -0.3,0 -0.3,0 -0.1,0 -0.3,0 -0.5,0 -0.7,0 -1.7,0 -3.1,0.1 -0.2,0 -0.7,0.1 -1.2,0.1 -0.1,0 -0.2,0 -0.4,0 -0.2,0 -0.3,0 -0.4,0 -0.2,0 -0.6,0.1 -1.1,0.1 -0.1,0 -0.4,-0.1 -0.8,-0.1 -0.3,-0.1 -0.6,-0.1 -0.8,-0.1 -0.1,0 -0.3,0 -0.6,0.1 -0.3,0 -0.5,0.1 -0.6,0 0,0 -0.1,-0.1 -0.2,-0.2 0,-0.4 0,-0.9 -0.1,-1.3 0.1,0 0.2,0 0.3,0 0.2,0 0.5,0 0.9,0.1 0.4,0.1 0.7,0.1 0.9,0.1 0.9,0 1.3,-0.5 1.4,-1.4 0,-0.2 0.1,-0.5 0.1,-1 0,-0.1 0,-0.3 0,-0.5 0.1,-0.7 0.1,-1.1 0,-1.2 0.1,-0.2 0.1,-0.4 0.1,-0.6 0,-0.1 0,-0.3 0,-0.5 0,-0.2 0,-0.4 0,-0.5 0,-0.3 0,-0.5 0,-0.6 0,-0.1 -0.1,-0.3 0,-0.5 0,-0.3 0,-0.5 0,-0.5 0,-2.1 0,-3.2 0,-3.4 0.1,-2.3 0.2,-3.9 0.1,-4.9 -0.1,-1.1 -0.4,-1.6 -1,-1.5 0,0 -0.1,-0.1 -0.2,-0.2 -0.3,0 -0.8,0 -1.6,0.1 C 69.3,2.7 69.3,2.5 69.2,2.4 69.1,2.2 69,2.1 69,2 c 0.1,0 0.1,0 0.2,0 0,-0.2 0,-0.4 0.1,-0.8 h 0.1 c 0.2,0.1 0.6,0.1 1.1,0.3 0.5,-0.1 1.3,-0.1 2.3,-0.1 1,0 1.8,0 2.2,-0.1 0.1,0.1 0.2,0.2 0.4,0.2 0.1,0 0.3,0 0.6,0 0.3,0 0.4,0 0.6,0 1.5,0 2.2,0 2.2,0 0.1,0 0.3,0 0.4,0 0.3,0 0.8,0.1 1.4,0.2 0.9,0.1 1.4,0.2 1.5,0.2 0.3,0 0.6,0 1.1,0.1 0.3,0.1 0.5,0.2 0.7,0.2 0.3,0.1 0.6,0.1 0.8,0.1 0.1,0.1 0.3,0.2 0.7,0.4 0.3,0.2 0.5,0.3 0.6,0.6 0.1,0.1 0.2,0.1 0.2,0.1 0.1,0.2 0.2,0.4 0.6,0.6 0.4,0.5 0.6,0.9 0.7,1.3 0.2,1.5 0.2,2.2 0.2,2.2 0,0.2 0,0.3 -0.1,0.5 0,0.1 -0.1,0.4 -0.2,0.7 0,0.2 -0.1,0.5 -0.2,0.9 -1.1,1.2 -2.3,2 -3.5,2.3 -0.2,0 -0.5,0.1 -0.9,0.2 -0.1,0 -0.2,0 -0.4,0.1 -0.4,0 -1,0.1 -1.7,0.2 -0.5,-0.1 -1,0.1 -1,0.3 z m -0.3,-1.2 c 0.1,0 0.1,-0.1 0,0 0,-0.1 0,-0.1 0,-0.1 0.3,0 0.5,-0.1 0.8,-0.2 0.4,-0.2 0.6,-0.3 0.7,-0.3 0.1,-0.3 0.2,-0.4 0.4,-0.5 0.4,-0.1 0.6,-0.2 0.6,-0.2 0,0 0.1,-0.1 0.1,-0.2 0.1,0 0.1,-0.1 0.2,-0.1 0.4,-0.5 0.7,-1.3 0.9,-2.4 0.2,-1.2 0.2,-2.2 0,-2.7 C 83,4.5 82.9,4.2 82.9,4.1 82.8,3.9 82.7,3.7 82.6,3.5 82.1,3 81.3,2.8 80.3,2.8 80,2.6 79.4,2.5 78.7,2.5 c -0.6,0 -1.2,0 -1.8,0 0,0.2 0,0.4 0,0.8 -0.1,0.5 -0.1,1.2 -0.1,1.9 0,0.4 0,0.9 0.1,1.7 0,0.8 0.1,1.3 0.1,1.7 0,1.4 0,2.6 -0.1,3.6 0.2,0 0.4,0.1 0.6,0.1 0.7,-0.4 1.3,-0.5 1.9,-0.8 z"
   class="st1"
   id="path15258"
   inkscape:connector-curvature="0" /> <path
   data-v-3d3003f2=""
   d="m 88.3,1.1 c 0,0 0,0.1 0,0 0.3,0.1 0.6,0.1 1.1,0.2 1.5,0 3.1,0 4.7,0.2 1.1,-0.2 2.2,-0.2 3.3,-0.1 0,0 0.1,0 0.1,-0.1 0.5,0.1 1.1,0.1 1.8,0.1 0.5,0 1,-0.1 1.6,-0.1 0.4,0.2 0.9,0.2 1.4,0.1 1,0.2 1.6,0.3 1.9,0.3 0,0.3 0,0.6 0,1 0,0.4 0,1 0,1.8 0,0.8 0,1.4 0,1.8 0,0.8 0.1,1.6 0.1,2.1 -0.1,0 -0.1,0.1 -0.2,0.3 -0.4,0 -0.7,0 -0.8,0 -0.1,-0.2 -0.2,-0.5 -0.1,-0.8 0,-0.6 0,-0.9 0,-0.9 0,-0.3 -0.1,-0.7 -0.2,-1.3 -0.1,-0.6 -0.1,-1.2 -0.2,-1.9 -0.1,-0.7 -0.4,-1.2 -0.8,-1.3 -0.1,-0.1 -0.7,-0.1 -1.7,-0.1 -0.2,0 -0.3,0 -0.5,0 -0.7,-0.1 -1.2,-0.1 -1.6,-0.1 0,0 -0.1,0 -0.1,0 -0.1,0 -0.1,0 -0.1,0 0,0 -0.1,0 -0.1,0 -0.1,0 -0.1,0 -0.1,0 -0.1,0 -0.2,0 -0.3,0 -0.1,0 -0.3,0 -0.3,0 -1.6,0 -2.5,0 -2.6,0 0,0.1 0.1,0.1 0,0.2 0,0.1 0,0.1 0,0.2 -0.1,0.7 -0.2,1.5 -0.3,2.5 0,0.8 -0.1,1.6 -0.1,2.4 C 94,8 93.9,8.5 93.9,9 c 0,0.5 0,1.1 0,1.6 0.1,0.1 0.2,0.1 0.3,0.2 0.2,0 0.4,0.1 0.7,0.1 1.1,0 1.9,-0.3 2.2,-1 0.2,-1.2 0.2,-2.3 0.1,-3.4 0,-0.1 0.1,-0.1 0.1,-0.2 0.3,0.1 0.6,0.1 1,0 0.1,0.4 0.1,1.1 0,1.9 -0.1,1 -0.1,1.7 -0.1,1.9 0,0.5 0,1 0.1,1.3 0,0.3 0,0.5 0,0.8 0,0.4 0,0.9 0.1,1.5 0.1,0.7 0.1,1.3 0.1,1.6 0,0 -0.1,0.1 -0.1,0.2 -0.1,0.1 -0.1,0.2 0,0.3 -0.5,0.1 -0.8,0.1 -0.7,0.1 -0.2,0 -0.4,-0.1 -0.4,-0.2 -0.1,-0.1 -0.1,-0.4 -0.1,-0.8 l 0.1,-1.4 c 0,-0.3 -0.1,-0.9 -0.3,-1.5 0,0 0,0 -0.1,0 0,0 -0.1,0 -0.1,0 v -0.3 c -0.3,-0.2 -0.7,-0.3 -1.2,-0.3 -0.4,0 -1,0.1 -1.7,0.2 0,1.2 0,2.9 0.1,5.2 -0.2,1.2 -0.3,2.1 -0.3,2.7 0.3,0 0.4,0 0.5,0 0.5,0.2 1.2,0.2 2,0.1 0.3,0.1 0.9,0.1 1.6,0.1 0.5,0 1.1,0 1.6,0 0.7,0 1.2,-0.1 1.6,-0.2 0.1,-0.2 0.4,-0.5 0.7,-0.9 0.4,-1.1 0.7,-2.5 0.8,-4.1 0.4,-0.2 0.6,-0.2 0.9,-0.2 0.1,0.1 0.1,0.3 0.1,0.5 0,0.3 0,0.4 0.1,0.5 -0.1,0.4 -0.1,1.3 -0.1,2.6 0,1.4 0,2.4 -0.1,2.8 -0.1,0 -0.3,0 -0.6,-0.2 -0.1,0 -0.6,0 -1.7,0 h -3.5 c -0.1,0 -0.2,0 -0.3,0 -0.2,0 -0.3,0 -0.4,0 -0.1,0 -0.2,0.1 -0.2,0.1 0,0 0,-0.1 -0.1,-0.1 -0.8,0.1 -1.4,0 -1.8,-0.1 -0.2,0.1 -0.4,0.1 -0.6,0.1 -0.4,-0.1 -0.6,-0.1 -0.6,-0.1 -0.2,0 -0.4,0.1 -0.7,0.1 -0.2,0 -0.6,0 -1.1,0 -0.4,0 -1,0 -1.8,0.1 -0.3,0.1 -0.9,0.1 -1.5,0.2 -0.1,0 -0.3,0 -0.6,0 -0.1,0.1 -0.2,0.1 -0.4,0.2 0,0 -0.1,-0.1 -0.2,-0.1 -0.3,0 -0.4,0.1 -0.3,0.1 -0.2,0 -0.4,-0.2 -0.4,-0.6 -0.1,-0.4 -0.1,-0.7 -0.2,-0.7 0.1,0 0.1,0 0.2,0 0.1,0 0.2,-0.1 0.2,-0.1 0.3,0.1 0.7,0.1 1.3,0.1 0.1,0 0.4,0 0.7,0 0.3,0 0.5,-0.1 0.7,-0.3 0.1,-0.1 0.2,-0.3 0.4,-0.6 0,-0.9 0,-2.3 0.1,-4.1 0,-1.1 0,-1.9 0.1,-2.2 0,-0.9 0.1,-1.6 0.2,-2.2 0,-1.5 0,-3.7 0,-6.5 0,-0.1 0,-0.2 0,-0.3 0,-0.3 -0.2,-0.6 -0.5,-0.8 -0.3,-0.2 -0.6,-0.3 -1,-0.3 -0.2,0 -0.3,0 -0.5,0 C 88.2,2.3 88.1,2.2 88.1,2 c 0,-0.1 0,-0.3 0.1,-0.5 0.1,-0.2 0.1,-0.3 0.1,-0.4 z"
   class="st1"
   id="path15260"
   inkscape:connector-curvature="0" /> <path
   data-v-3d3003f2=""
   d="m 119.9,11.2 c 1,0.4 1.5,0.7 1.7,0.8 0.6,0.3 1,0.7 1.3,1.3 0.1,0.1 0.1,0.3 0.2,0.7 0.1,0.2 0.2,0.6 0.4,1 0.2,0.7 0.2,1.7 0.2,3 0.2,1.2 0.4,1.9 0.9,2.3 0.2,0.1 0.4,0.1 0.6,0.1 0.6,0 1,-0.2 1.2,-0.6 0.1,-0.5 0.2,-1.2 0.2,-2 0,-1 0,-1.6 0.1,-2 0.1,-0.1 0.2,-0.2 0.3,-0.3 0,0.1 0.1,0.1 0.2,0.1 0.1,0 0.2,0 0.2,0.1 0.1,1.3 0.1,2.6 -0.1,3.8 -0.1,0.3 -0.3,0.8 -0.6,1.4 -0.2,0.2 -0.6,0.5 -1.2,0.8 -0.2,0.1 -0.7,0.2 -1.2,0.4 -0.1,0 -0.2,0 -0.4,0 -0.2,0 -0.3,0 -0.4,0 -0.6,0 -1.2,-0.2 -1.7,-0.4 -0.5,-0.4 -0.8,-0.9 -1.1,-1.3 -0.2,-0.8 -0.4,-1.7 -0.5,-2.6 -0.1,-0.9 -0.1,-1.5 -0.2,-1.8 -0.1,-0.4 -0.2,-0.7 -0.3,-1.1 -0.1,-0.5 -0.2,-0.8 -0.4,-1.1 -0.9,-1 -1.8,-1.5 -2.7,-1.5 -0.2,0 -0.4,0 -0.6,0.1 -0.1,0 -0.2,0 -0.4,0 -0.3,0 -0.7,0 -1.3,0.1 -0.6,0.1 -1,0.1 -1.2,0.1 0,0.8 0,1.8 0,3 0,0.7 0,1.3 0,2 0,0.8 0.1,1.4 0.4,1.8 0.5,0.3 1.1,0.3 1.8,0.2 0.2,0.1 0.4,0.3 0.5,0.5 0,0.1 0,0.3 0,0.4 0,0.2 0.1,0.3 0.1,0.5 -0.3,0 -0.6,0.1 -1,0.1 -0.4,0 -1,0 -1.8,-0.1 -0.8,-0.1 -1.4,-0.1 -1.8,-0.1 -0.3,0 -0.5,0 -0.7,0 -0.7,0.1 -1.4,0.1 -2.1,0.1 -0.4,0 -1.4,0 -2.8,0.1 -0.1,-0.1 -0.1,-0.3 -0.1,-0.5 0,-0.2 0,-0.4 -0.1,-0.5 0.1,-0.1 0.1,-0.2 0.2,-0.3 0.4,0.1 0.7,0.1 0.7,0 0.1,0 0.3,0.1 0.5,0.2 1,0 1.7,-0.2 2.1,-0.6 0.2,-0.6 0.4,-1.3 0.4,-2.1 0,-0.3 0,-0.8 -0.1,-1.5 0,-0.6 -0.1,-1.1 -0.1,-1.4 0,-0.3 0.1,-0.8 0.1,-1.5 0,-0.4 0,-1 -0.1,-1.7 -0.1,-0.9 -0.1,-1.4 -0.1,-1.8 0,-0.3 0,-0.7 -0.1,-1.2 -0.1,-0.6 -0.1,-1 -0.1,-1.2 0,-0.2 0,-0.4 0,-0.6 0,0 0,-0.6 -0.1,-1.9 0,-0.8 -0.2,-1.3 -0.5,-1.5 -0.1,0 -0.3,0 -0.5,-0.1 -0.3,-0.1 -0.5,-0.1 -0.6,-0.1 -0.2,0 -0.3,0.1 -0.4,0.2 -0.3,-0.4 -0.5,-0.7 -0.5,-1 0,-0.2 0.1,-0.3 0.2,-0.5 0.3,-0.1 0.8,-0.1 1.4,-0.1 0.7,0 1.2,0 1.4,0 0.5,0 1.1,0 2,0 0.7,0 1.4,0 2,0.1 0.1,0 0.2,0 0.2,-0.1 0.7,0.1 1.6,0.2 3,0.3 0.1,0 0.3,-0.1 0.6,-0.1 1.7,0 3.1,0.4 4.3,1 0.1,0.2 0.3,0.3 0.5,0.6 0.3,0.2 0.5,0.4 0.6,0.5 0.1,0.1 0.2,0.4 0.4,0.8 0.1,0.4 0.2,0.8 0.3,1.4 0,0.5 0.1,1 0.1,1.5 0,0.3 -0.1,0.6 -0.2,1 -0.2,0.4 -0.3,0.7 -0.2,0.9 -0.2,0.2 -0.4,0.6 -0.6,1.1 -0.3,0.2 -0.6,0.5 -0.8,0.7 -1,-0.2 -1.3,0 -1.6,0.1 z m -5.3,0.2 c 0.2,0 0.4,0.1 0.8,0.1 1.2,0 2.2,-0.5 2.9,-1.6 0.3,-0.7 0.5,-1.9 0.5,-3.6 -0.1,-0.3 -0.2,-0.6 -0.2,-1.2 0,-0.5 -0.1,-0.9 -0.2,-1.2 -0.1,-0.1 -0.3,-0.4 -0.6,-0.8 -0.2,-0.2 -0.4,-0.4 -0.8,-0.7 -0.3,-0.1 -0.7,-0.2 -1.2,-0.4 -0.3,-0.1 -0.6,-0.2 -1.1,-0.4 -0.4,0 -1.1,0 -1.9,-0.1 0,0 0,0 -0.1,0 0,0 0,0.1 0,0.1 0,0.1 0,0.5 0,1 0,0.2 0,0.4 0,0.7 0,0.2 0,0.6 0.1,1.1 0.1,0.5 0.1,0.9 0.1,1.2 0,0.2 0,0.6 -0.1,1.4 0,0.6 0,1.1 0,1.5 0,0.2 0,0.6 0,1.3 0,0.6 0,1 0,1.4 0.1,0.2 0.7,0.2 1.8,0.2 z"
   class="st1"
   id="path15262"
   inkscape:connector-curvature="0" />  </g> <g
   data-v-3d3003f2=""
   class="logo__nfd"
   style="fill:#b6c200"
   id="g15328"
   transform="translate(-0.98395059,233.81352)"> <path
   data-v-3d3003f2=""
   d="m 46.176637,-2.9501436 c 0,0 0,-6.3250239 -0.790628,-18.1844434 -0.790628,-7.90628 -0.790628,-14.231304 -0.790628,-19.7657 0.790628,-1.581256 2.371884,-1.581256 4.743768,-1.581256 0.790628,0 2.371884,0 3.95314,0.790628 0,0.790628 0.790628,0.790628 0.790628,1.581256 0.790628,11.85942 1.581256,19.7657 1.581256,22.928212 0.790628,8.6969074 0.790628,16.60318737 1.581256,22.9282113 0,1.581256 0,3.162512 0,5.5343957 0,2.371884 0,3.95314 0,5.534396 0,1.581256 0,3.95314 -0.790628,4.743768 -2.371884,-0.790628 -3.95314,-0.790628 -5.534396,-0.790628 -1.581256,0 -2.371884,0 -3.95314,0.790628 0,0 0,-0.790628 -0.790628,-0.790628 0,0 0,-0.790628 0,-0.790628 0,-0.790628 0,-0.790628 0,-0.790628 -0.790628,-0.790628 -2.371884,-3.95314 -4.743768,-9.4875357 -0.790628,-3.95314 -3.162512,-6.325024 -4.743768,-8.696908 0,-0.79062794 0,-1.58125593 -0.790628,-1.58125593 0,-0.79062797 -0.790628,-0.79062797 -0.790628,-1.58125597 -2.371884,-4.743768 -4.743768,-8.6969084 -6.325024,-10.2781644 0,-0.790628 0,-1.581255 -0.790628,-2.371883 -0.790628,-0.790628 -1.581256,-1.581256 -1.581256,-2.371884 0,11.8594194 0,20.5563273 0.790628,26.8813513 0,0.7906277 0,2.3718837 0,3.1625117 0,0.790628 0,1.581256 0,2.371884 0,1.581256 0,2.371884 0,2.371884 0,2.371884 -0.790628,3.95314 -1.581256,5.534396 -1.581256,-0.790628 -3.162512,-0.790628 -4.743768,-0.790628 -1.581256,0 -3.95314,0.790628 -7.115652,1.581256 -0.790628,-0.790628 -0.790628,-2.371884 0,-3.162512 -0.790628,-0.790628 -0.790628,-2.371884 -0.790628,-3.95314 0,-0.790628 0,-2.371884 0,-3.95314 0,-1.581256 -0.790628,-3.1625117 -0.790628,-3.9531397 0,-0.790628 0,-2.371884 0,-4.743768 0,-2.371884 0,-3.95313994 0,-4.74376793 0,-2.37188397 0,-4.74376797 0,-9.48753637 0,-4.743767 0,-7.906279 0,-10.278163 0,-4.743768 0,-8.696908 -0.790628,-11.85942 0,-3.95314 -0.790628,-6.325024 -0.790628,-6.325024 0,-1.581256 0,-3.162512 0.790628,-3.95314 2.371884,-0.790628 4.743768,-0.790628 7.90628,-0.790628 2.371884,0 4.743768,0 7.115652,0.790628 0,0 0.790628,0.790628 0.790628,1.581256 0.790628,0.790628 0.790628,0.790628 0.790628,0.790628 0,0 0,0.790628 0,0.790628 0,0.790628 0,0.790628 0,0.790628 5.534396,12.650048 11.068792,23.71884 18.184444,35.5782594 -0.790628,-0.790628 -0.790628,0 0,0 -0.790628,0 0,0 0,0"
   id="path15280"
   inkscape:connector-curvature="0"
   style="stroke-width:7.90628004" /> <path
   data-v-3d3003f2=""
   d="m 80.173641,-11.647052 c 3.162512,0.790628 5.534396,0.790628 7.115652,0.790628 -0.790628,-1.581256 -1.581256,-3.953139 -2.371884,-5.534395 -0.790628,-2.371884 -2.371884,-3.95314 -3.162512,-4.743768 -0.790628,3.162512 -1.581256,6.325024 -1.581256,9.487535 M 90.451805,4.1655083 c 0.790628,0 0.790628,0 0.790628,-0.790628 0,-0.790628 0,-1.581256 -0.790628,-2.371884 -1.581256,-0.79062794 -3.162512,-0.79062794 -4.743768,-1.58125593 -1.581256,0 -3.95314,-0.79062797 -5.534396,-0.79062797 -0.790628,2.3718839 -1.581256,5.5343959 -1.581256,10.2781639 0,5.5343957 0,9.4875357 -0.790628,11.0687917 0,0 0,0.790628 -0.790628,0.790628 -0.790628,0 -0.790628,0 -0.790628,0.790628 -0.790628,0 -2.371884,0 -3.95314,0 -1.581256,0 -3.162512,0 -3.95314,0 -1.581256,0 -2.371884,0 -3.95314,0 -0.790628,-0.790628 -0.790628,-2.371884 -0.790628,-3.95314 0,-0.790628 0,-2.371884 0.790628,-3.95314 0,-2.371884 0,-3.9531397 0,-4.7437677 0,-1.581256 0,-3.162512 0,-5.534396 0.790628,-6.3250239 1.581256,-11.8594199 2.371884,-17.3938153 0,-2.371884 0.790628,-6.325024 1.581256,-11.068792 0,-1.581256 0.790628,-3.95314 0.790628,-9.487536 0,-3.95314 0.790628,-6.325024 2.371884,-7.90628 4.743768,0.790628 9.487536,1.581256 13.440676,1.581256 2.371884,0 4.743768,0 7.115652,-0.790628 0.790628,0.790628 2.371884,2.371884 2.371884,4.743768 0.790628,3.162512 1.581256,4.743768 1.581256,5.534396 0.790628,5.534396 3.162512,16.603188 7.115649,32.4157473 0.79063,3.162512 1.58126,6.325024 2.37189,9.4875357 0.79062,3.95314 1.58125,7.115652 2.37188,9.487536 0,0 -0.79063,0.790628 -0.79063,2.371884 -1.58125,0 -3.16251,0.790628 -4.74377,1.581256 -1.58125,0.790628 -3.162507,0.790628 -4.743763,0.790628 -0.790628,0 -0.790628,0 -1.581256,0 -2.371884,-3.95314 -3.95314,-11.068792 -3.95314,-19.7656997 -0.790628,-0.790628 -0.790628,-0.790628 -1.581256,-0.790628"
   id="path15282"
   inkscape:connector-curvature="0"
   style="stroke-width:7.90628004" /> <path
   data-v-3d3003f2=""
   d="m 141.052,-42.481543 c 0,0.790628 0.79062,0.790628 0.79062,1.581256 0,0.790628 0,0.790628 0,2.371884 0,1.581256 0,1.581256 0,2.371884 0,0 0,1.581256 0,3.162512 0,1.581256 0,2.371884 0,3.162512 0,0.790628 0,2.371884 -0.79062,3.162512 -4.74377,0 -8.69691,0.790628 -11.0688,1.581256 0,1.581256 0,4.743768 0.79063,7.90628 0.79063,3.953139 0.79063,7.115651 0.79063,9.4875354 0,3.162512 0,7.90627996 0.79063,14.2313039 0,6.3250237 0,11.0687917 0,13.4406757 0,0 0,0.790628 0,1.581256 0,0.790628 0,0.790628 0,0.790628 0,0.790628 -0.79063,0.790628 -1.58126,1.581256 -0.79063,0.790628 -1.58125,0.790628 -1.58125,0.790628 -0.79063,-0.790628 -2.37189,-0.790628 -3.95314,-0.790628 -1.58126,0 -3.16252,0 -3.95314,-0.790628 -1.58126,-0.790628 -2.37189,-1.581256 -3.16252,-2.371884 0,-1.581256 0.79063,-4.743768 0.79063,-7.90628 0,-3.1625117 0,-5.5343957 0,-8.6969077 0,-13.4406758 -0.79063,-23.7188393 -3.16251,-30.8344913 -1.58126,0 -2.37188,0 -4.74377,0 -1.58125,0 -3.16251,0 -3.95314,0 -1.58125,0 -3.16251,0 -4.74377,-0.790628 0,-0.790628 0,-1.581256 0,-2.371884 0,-0.790628 0,-1.581256 0,-3.162512 0,-1.581256 0,-2.371884 0,-3.162512 0,-1.581256 0,-2.371884 0,-3.95314 4.74377,-0.790628 11.0688,-0.790628 18.97508,-0.790628 9.48753,-1.581256 15.81256,-1.581256 19.7657,-1.581256"
   id="path15284"
   inkscape:connector-curvature="0"
   style="stroke-width:7.90628004" /> <path
   data-v-3d3003f2=""
   d="m 188.48968,5.7467643 c -0.79063,1.581256 -0.79063,3.162512 -1.58126,6.3250237 -0.79063,0.790628 -1.58126,1.581256 -2.37188,3.95314 -0.79063,1.581256 -1.58126,3.162512 -2.37189,3.95314 -0.79063,0.790628 -2.37188,1.581256 -3.95314,2.371884 -2.37188,0.790628 -3.95314,1.581256 -3.95314,1.581256 -0.79063,0 -1.58125,0 -2.37188,0 -3.95314,0 -7.90628,-1.581256 -11.85942,-3.95314 -3.16251,-2.371884 -6.32503,-5.534396 -7.90628,-9.487536 -2.37189,-7.1156517 -3.95314,-16.6031876 -3.95314,-30.043863 0,-0.790628 0,-2.371884 0,-3.95314 0,-1.581256 -0.79063,-3.95314 -0.79063,-7.115652 0,-0.790628 0,-1.581256 0,-2.371884 0,-0.790628 0,-1.581256 0,-2.371884 0,-0.790628 0,-1.581256 -0.79063,-2.371884 0,-0.790628 0.79063,-1.581256 0.79063,-2.371884 0.79063,-0.790628 1.58126,-1.581256 1.58126,-1.581256 0,0 0.79062,0 2.37188,0.790628 1.58126,0 2.37188,0.790628 3.16251,0.790628 0.79063,0 1.58126,0 2.37189,-0.790628 0.79062,0 0.79062,0.790628 1.58125,1.581256 0.79063,0.790628 0.79063,0.790628 0.79063,1.581256 0.79063,1.581256 0,6.325024 0,11.85942 0,4.743768 0.79063,9.487536 1.58126,15.021931 0.79062,1.5812565 0.79062,3.1625124 1.58125,6.3250244 0.79063,3.162512 1.58126,5.5343959 2.37189,8.6969079 0.79062,3.162512 2.37188,4.743768 4.74376,5.534396 0,0 0.79063,0 0.79063,0 0.79063,0 3.16251,-0.790628 5.5344,-1.581256 0.79063,-3.162512 1.58125,-7.115652 1.58125,-11.0687919 0,-0.790628 0,-2.371884 0,-4.743768 0,-1.5812559 0,-3.1625124 0,-4.7437684 0,0 0,-0.790628 0,-0.790628 0,0 0,-0.790627 0,-0.790627 0,0 -0.79062,-0.790628 -0.79062,-1.581256 0,-0.790628 0,-2.371884 0,-3.95314 0,-3.162512 0,-5.534396 0,-8.696908 0,-3.95314 -0.79063,-7.115652 -1.58126,-9.487536 0,-0.790628 0,-0.790628 0.79063,-1.581256 0,-0.790628 0,-1.581256 0,-1.581256 0,0 0.79063,0 1.58125,-0.790628 0.79063,-0.790628 1.58126,-0.790628 1.58126,-0.790628 1.58126,0 2.37188,0 3.95314,0.790628 1.58126,0.790628 2.37188,0.790628 2.37188,0.790628 0.79063,0 0.79063,0 1.58126,0 1.58126,0.790628 2.37188,1.581256 2.37188,2.371884 0,1.581256 0,3.162512 0,4.743768 0.79063,11.85942 0.79063,18.975072 0.79063,21.346955 0,3.9531404 0,7.1156524 -0.79063,9.4875364 0,0.790628 -0.79062,2.37188397 -0.79062,4.7437679 0,1.581256 0,3.162512 0,3.95314"
   id="path15286"
   inkscape:connector-curvature="0"
   style="stroke-width:7.90628004" /> <path
   data-v-3d3003f2=""
   d="m 209.046,-13.228308 c 0.79063,0.790628 2.37189,0.790628 3.95314,0 1.58126,-1.581255 3.16252,-3.953139 3.16252,-7.115651 -0.79063,-4.743768 -3.16252,-7.115652 -7.11566,-7.90628 -0.79062,3.95314 -0.79062,6.325024 -0.79062,8.696908 0,2.371884 0.79062,3.95314 0.79062,6.325023 m 10.27817,5.5343964 c 0.79063,1.581256 3.16251,3.95314 5.53439,8.6969079 2.37189,3.95314 3.95314,6.325024 6.32503,7.90628 0,0.790628 0.79063,1.5812557 1.58125,3.9531397 0.79063,1.581256 1.58126,2.371884 1.58126,3.95314 0,0.790628 0,1.581256 -0.79063,2.371884 -0.79063,0 -2.37188,0 -3.16251,0 -1.58126,0 -2.37188,0.790628 -2.37188,1.581256 0,0 0,0 -0.79063,0 0,0 -0.79063,0 -0.79063,0 0,0 0,0 0,0 0,0 0,0.790628 0,0.790628 0,0 -0.79063,0 -0.79063,0 0,0 -0.79063,0 -0.79063,0 -0.79062,0 -0.79062,0 -1.58125,0 -2.37189,-3.162512 -4.74377,-7.115652 -7.90628,-10.278164 -3.16251,-3.9531397 -5.5344,-7.1156517 -7.90628,-9.4875357 0,0.790628 0,1.581256 0,2.371884 0,2.371884 0,5.534396 0.79063,9.4875357 0.79062,3.95314 0.79062,7.115652 0.79062,9.487536 -0.79062,0 -0.79062,0.790628 -1.58125,1.581256 -1.58126,-0.790628 -2.37189,-0.790628 -3.95314,-0.790628 -2.37189,0 -3.95314,0.790628 -7.11565,1.581256 0,0 -0.79063,-0.790628 -1.58126,-1.581256 -0.79063,-21.3469557 -0.79063,-40.322027 0,-56.134587 0,-0.790628 0,-1.581256 0,-2.371884 0,-0.790628 0,-1.581256 0,-2.371884 0,-0.790628 0,-2.371884 0.79063,-2.371884 0,0 0.79063,-0.790628 1.58125,-0.790628 0.79063,0 0.79063,-0.790628 1.58126,-1.581256 0,0 0,0 0,0 1.58126,0 3.16251,0 3.16251,0.790628 2.37189,0 3.95314,0 5.5344,0 5.53439,1.581256 10.27816,3.95314 13.44067,6.325024 4.74377,3.162512 6.32503,7.115652 6.32503,11.85942 0,1.581256 0,3.162512 -0.79063,5.534396 0,0.790628 -0.79063,1.581256 -1.58126,3.162512 -0.79062,1.581255 -1.58125,2.371883 -1.58125,3.162511 -0.79063,0 -1.58126,0.790628 -2.37189,1.5812565 0,0.7906279 -0.79062,1.5812559 -1.58125,1.5812559"
   id="path15288"
   inkscape:connector-curvature="0"
   style="stroke-width:7.90628004" /> <path
   data-v-3d3003f2=""
   d="m 256.48368,-12.43768 c 3.16251,0.790628 5.5344,0.790628 7.11565,0.790628 -0.79062,-1.581256 -1.58125,-3.953139 -2.37188,-5.534395 -0.79063,-2.371884 -2.37188,-3.95314 -3.16251,-4.743768 -1.58126,3.162512 -1.58126,6.325024 -1.58126,9.487535 m 10.27817,15.8125603 c 0,0 0.79062,0 0,0 0.79062,-0.790628 0.79062,-1.581256 0,-3.16251194 -1.58126,-0.79062799 -3.16252,-0.79062799 -4.74377,-1.58125596 -1.58126,0 -3.95314,-0.790628 -5.5344,-0.790628 -0.79063,2.37188396 -1.58125,5.5343959 -1.58125,10.2781639 0,5.5343957 0,9.4875357 -0.79063,11.0687917 0,0 0,0.790628 -0.79063,0.790628 -0.79063,0 -0.79063,0 -0.79063,0.790628 -0.79063,0 -2.37188,0 -3.95314,0 -1.58125,0 -3.16251,0 -3.95314,0 -1.58125,0 -2.37188,0 -3.95314,0 -0.79062,-0.790628 -0.79062,-2.371884 -0.79062,-3.95314 0,-0.790628 0,-2.371884 0.79062,-3.95314 0.79063,-2.371884 0.79063,-3.1625117 0.79063,-3.9531397 0,-1.581256 0,-3.162512 0,-5.534396 0.79063,-6.3250239 1.58126,-11.8594199 2.37189,-17.3938153 0,-2.371884 0.79062,-6.325024 1.58125,-11.068792 0,-1.581256 0.79063,-3.95314 0.79063,-9.487536 0,-3.95314 0.79063,-6.325024 2.37188,-8.696908 4.74377,0.790628 9.48754,1.581256 13.44068,1.581256 2.37188,0 4.74377,0 7.11565,-0.790628 0.79063,0.790628 2.37188,2.371884 2.37188,4.743768 0.79063,3.162512 1.58126,4.743768 1.58126,5.534396 0.79063,5.534396 3.16251,16.603188 7.11565,32.41574736 0.79063,3.16251194 1.58126,6.32502394 1.58126,9.48753594 0.79063,3.9531397 1.58125,7.1156517 2.37188,9.4875357 0,0 -0.79063,0.790628 -0.79063,2.371884 -1.58125,0 -3.16251,0.790628 -4.74376,1.581256 -1.58126,0.790628 -3.16252,0.790628 -4.74377,0.790628 -0.79063,0 -0.79063,0 -1.58126,0 -2.37188,-3.95314 -3.95314,-11.068792 -3.95314,-19.7656997 -0.79063,-0.790628 -1.58125,-0.790628 -1.58125,-0.790628"
   id="path15290"
   inkscape:connector-curvature="0"
   style="stroke-width:7.90628004" /> <path
   data-v-3d3003f2=""
   d="m 303.92136,-41.690915 c 0,0 0,0.790628 -0.79063,2.371884 0,2.371884 0,7.115652 0,11.85942 0,0.790628 0,2.371884 0.79063,4.743768 0,1.581256 0,3.162512 0,3.95314 0,0.790628 0,2.371884 0,3.95314 0,2.371883 0.79063,10.2781634 1.58126,22.9282113 1.58125,0 4.74377,-0.790628 9.48753,-1.581256 3.95314,-0.790628 6.32503,-0.790628 9.48754,-2.371884 0.79063,0.790628 0.79063,2.371884 0.79063,3.95314 0,0.790628 0,1.581256 0,2.3718837 0,0.790628 0,1.581256 0,2.371884 0,0.790628 0,0.790628 0,1.581256 0,0.790628 0,1.581256 0.79063,2.371884 0,0.790628 0.79062,1.581256 0.79062,2.371884 0,0.790628 0,1.581256 -0.79062,2.371884 -0.79063,0 -1.58126,0 -1.58126,0.790628 -2.37188,-0.790628 -6.32502,-1.581256 -11.06879,-1.581256 -1.58126,0 -3.95314,0 -7.90628,0 -3.16251,0 -5.5344,0 -7.11565,0 -0.79063,0.790628 -1.58126,0.790628 -3.16252,1.581256 -0.79062,0 -1.58125,0 -3.95314,0 0,-0.790628 0,-0.790628 -0.79062,-0.790628 -0.79063,0 -0.79063,-0.790628 -0.79063,-0.790628 0.79063,-1.581256 1.58125,-3.162512 1.58125,-6.325024 0,-3.162512 0,-7.9062797 0.79063,-13.4406757 0.79063,-7.9062799 0.79063,-12.6500483 0.79063,-15.0219313 0,-3.95314 0,-10.278164 0,-18.184444 0,-0.790628 0,-2.371884 0,-3.95314 0,-1.581256 0,-2.371884 0,-3.162512 0,-1.581256 0,-2.371884 0.79063,-3.162512 0.79063,0 2.37188,-0.790628 3.95314,-1.581256 1.58125,-0.790628 3.16251,-0.790628 3.95314,-0.790628 0,1.581256 1.58125,2.371884 2.37188,3.162512"
   id="path15292"
   inkscape:connector-curvature="0"
   style="stroke-width:7.90628004" /> <path
   data-v-3d3003f2=""
   d="M 348.98716,33.418744 C 347.4059,34.209372 345.03402,35 342.66213,35 c -1.58125,0 -3.16251,0 -4.74376,0 0,-0.790628 -0.79063,-1.581256 -0.79063,-2.371884 2.37188,-1.581256 3.95314,-4.743768 4.74377,-8.696908 -2.37189,0 -3.16252,0.790628 -3.95314,0.790628 -0.79063,0 -2.37189,-0.790628 -3.16252,-2.371884 -0.79062,-1.581256 -2.37188,-1.581256 -3.16251,-2.371884 -0.79063,-1.581256 -0.79063,-2.371884 -0.79063,-4.743768 0,-2.371884 0.79063,-4.743768 1.58126,-6.3250237 0.79063,-2.371884 2.37188,-3.162512 4.74377,-3.95314 0.79063,0 1.58125,0 2.37188,0 1.58126,0 3.95314,0 6.32503,0.790628 2.37188,0.790628 3.95314,1.581256 4.74376,1.581256 1.58126,1.581256 2.37189,4.7437677 2.37189,7.9062797 0,1.581256 0,3.95314 -0.79063,7.115652 0,2.371884 -0.79063,3.95314 -0.79063,6.325024 -1.58125,1.581256 -2.37188,3.162512 -2.37188,4.743768"
   id="path15294"
   inkscape:connector-curvature="0"
   style="stroke-width:7.90628004" /> <path
   data-v-3d3003f2=""
   d="m 399.58735,-17.181447 c 0,0.790628 0.79063,0.790628 0.79063,0.790628 0,0 0.79063,0 1.58125,0 0.79063,0 1.58126,0 1.58126,0 0,0 0.79063,0 0.79063,0 0,5.534395 0.79063,7.9062794 0.79063,7.9062794 0,2.371884 0,4.743768 -1.58126,6.325024 -0.79063,0 -0.79063,0 -1.58126,0 -0.79062,0 -2.37188,0 -3.95314,0.790628 -1.58125,0.79062797 -3.16251,0.79062797 -4.74376,0.79062797 -0.79063,2.37188393 -0.79063,5.53439593 -0.79063,8.69690793 0,3.1625117 0,7.1156517 0.79063,11.0687917 0,0.790628 -0.79063,2.371884 -0.79063,3.95314 0,0 -0.79063,0 -0.79063,0 0,0 0,0 0,0.790628 -3.16251,-0.790628 -4.74377,-0.790628 -4.74377,-0.790628 -1.58125,0 -2.37188,0 -3.16251,0.790628 -0.79063,0 -0.79063,0 -1.58126,0 -0.79062,0 -1.58125,0 -1.58125,0 0,-3.95314 0,-10.278164 0,-17.3938157 0,-8.6969079 0,-15.0219319 0,-18.1844443 0,-9.487535 0,-17.393815 -0.79063,-22.928211 0,-3.162512 0,-4.743768 0,-4.743768 0,-1.581256 0.79063,-3.162512 1.58126,-3.162512 0,0 0.79062,0 1.58125,0 0.79063,0 0.79063,0 1.58126,0 0.79063,0 0.79063,0 1.58125,0 1.58126,0.790628 3.16252,0.790628 5.5344,0.790628 0.79063,0 2.37188,0 4.74377,0 2.37188,0 3.95314,0 4.74377,0 0.79062,0 2.37188,0 3.95314,0 1.58125,0 2.37188,-0.790628 2.37188,-0.790628 0.79063,0 0.79063,0 1.58126,0.790628 -0.79063,0.790628 -0.79063,2.371884 -0.79063,3.162512 0,0.790628 0,1.581256 0,3.162512 0,1.581256 0,2.371884 0,3.162512 0,0.790628 0,1.581256 0,2.371884 -6.32503,0 -11.06879,0.790628 -15.02193,1.581256 0,0.790628 0,1.581256 0,2.371884 0,2.371884 0.79062,4.743768 1.58125,7.90628 1.58126,0.790628 3.16251,0.790628 4.74377,0.790628 -1.58126,0.790628 -0.79063,0.790628 0,0"
   id="path15296"
   inkscape:connector-curvature="0"
   style="stroke-width:7.90628004" /> <path
   data-v-3d3003f2=""
   d="m 429.63121,-12.43768 c 3.16252,0.790628 5.5344,0.790628 7.11566,0.790628 -0.79063,-1.581256 -1.58126,-3.953139 -2.37189,-5.534395 -0.79063,-2.371884 -2.37188,-3.95314 -3.16251,-4.743768 -1.58126,3.162512 -1.58126,6.325024 -1.58126,9.487535 m 10.27817,15.0219323 c 0.79063,0 0.79063,0 0.79063,-0.790628 0,-0.790628 0,-1.58125594 -0.79063,-2.37188393 -1.58126,-0.79062797 -3.16251,-0.79062797 -4.74377,-1.58125597 -1.58126,0 -3.95314,-0.790628 -5.5344,-0.790628 -0.79062,2.37188397 -1.58125,5.5343959 -1.58125,10.2781639 0,5.5343957 0,9.4875357 -0.79063,11.0687917 0,0 0,0.790628 -0.79063,0.790628 -0.79063,0 -0.79063,0 -0.79063,0.790628 -0.79062,0 -2.37188,0 -3.95314,0 -1.58125,0 -3.16251,0 -3.95314,0 -1.58125,0 -2.37188,0 -3.95314,0 -0.79062,-0.790628 -1.58125,-1.581256 -1.58125,-3.162512 0,-0.790628 0,-2.371884 0.79063,-3.95314 0.79062,-2.371884 0.79062,-3.1625117 0.79062,-3.9531397 0,-1.581256 0,-3.162512 0,-5.534396 0.79063,-6.3250239 1.58126,-11.8594199 2.37189,-17.3938153 0,-2.371884 0.79063,-6.325024 1.58125,-11.068792 0,-1.581256 0.79063,-3.95314 0.79063,-9.487536 0,-3.95314 0.79063,-6.325024 2.37189,-7.90628 4.74376,0.790628 9.48753,1.581256 13.44067,1.581256 2.37189,0 4.74377,0 7.11565,-0.790628 0.79063,0.790628 2.37189,2.371884 2.37189,4.743768 0.79062,3.162512 1.58125,4.743768 1.58125,5.534396 0.79063,5.534396 3.16251,16.603188 7.11565,32.4157473 0.79063,3.162512 1.58126,6.325024 2.37189,9.4875357 0.79063,3.95314 1.58125,7.115652 2.37188,9.487536 0,0 -0.79063,0.790628 -0.79063,2.371884 -1.58125,0 -3.16251,0.790628 -4.74376,1.581256 -1.58126,0.790628 -3.16252,0.790628 -4.74377,0.790628 -0.79063,0 -0.79063,0 -1.58126,0 -2.37188,-3.95314 -3.95314,-11.068792 -3.95314,-19.7656997 -0.79062,-1.581256 -1.58125,-1.581256 -1.58125,-2.371884"
   id="path15298"
   inkscape:connector-curvature="0"
   style="stroke-width:7.90628004" /> <path
   data-v-3d3003f2=""
   d="m 481.02203,21.559324 c -7.90628,0.790628 -13.44067,1.581256 -15.81256,1.581256 -0.79063,-0.790628 -0.79063,-1.581256 -0.79063,-2.371884 0,-0.790628 0,-0.790628 0,-1.581256 0,-0.790628 0,-1.581256 0,-1.581256 0,-0.790628 0,-2.371884 -0.79062,-2.371884 0,-5.5343957 0.79062,-10.2781637 0.79062,-15.81255963 0,-6.32502397 0,-12.65004837 -0.79062,-19.76569937 0,-1.581256 0,-3.162512 0,-4.743768 0,-2.371884 0,-3.95314 0,-4.743768 0,-3.162512 0,-6.325024 -0.79063,-9.487536 0,-0.790628 0.79063,-1.581256 1.58125,-2.371884 0.79063,0.790628 1.58126,0.790628 2.37189,0.790628 0,0 1.58125,0 3.95314,-0.790628 1.58125,0 2.37188,0 3.95314,0 0.79063,0 1.58125,-0.790628 1.58125,-0.790628 0.79063,0.790628 1.58126,0.790628 1.58126,2.371884 0,0 0,0.790628 0,3.162512 0,2.371884 0,8.696908 0.79063,19.7657 0,1.581256 0.79063,3.953139 0.79063,7.115651 0,1.5812564 0,3.9531404 0.79062,7.1156524 0,3.16251196 0.79063,5.5343959 0.79063,7.1156519 0,0.790628 0,1.581256 0,3.162512 0,1.581256 0,2.371884 0,3.1625117 0,2.371884 0,5.534396 0.79063,11.068792 -1.58126,-1.581256 -1.58126,-0.790628 -0.79063,0"
   id="path15300"
   inkscape:connector-curvature="0"
   style="stroke-width:7.90628004" /> <path
   data-v-3d3003f2=""
   d="m 503.15962,-14.809563 c 0.79062,0.790628 2.37188,0.790628 3.95314,0 1.58125,-1.581256 3.16251,-3.95314 3.16251,-7.115652 -0.79063,-4.743768 -3.16251,-7.115652 -7.11565,-7.90628 -0.79063,3.95314 -0.79063,6.325024 -0.79063,8.696908 0,2.371884 0,4.743768 0.79063,6.325024 m 10.27816,6.3250234 c 0.79063,1.581256 3.16251,3.95314 5.5344,8.69690796 2.37188,3.95313994 3.95314,6.32502394 6.32502,7.90627994 0,0.790628 0.79063,1.581256 1.58126,3.9531397 0.79062,1.581256 1.58125,2.371884 1.58125,3.95314 0,0.790628 0,1.581256 -0.79063,2.371884 -0.79062,0 -2.37188,0 -3.16251,0 -1.58125,0 -2.37188,0.790628 -2.37188,1.581256 0,0 0,0 -0.79063,0 0,0 -0.79063,0 -0.79063,0 0,0 0,0 0,0 0,0 0,0.790628 0,0.790628 0,0 -0.79063,-0.790628 -0.79063,-0.790628 0,0 -0.79062,0 -0.79062,0 -0.79063,0 -0.79063,0 -1.58126,0 -2.37188,-3.162512 -4.74377,-7.115652 -7.90628,-10.2781637 -3.16251,-3.95314 -5.5344,-7.115652 -7.90628,-9.48753594 0,0.79062794 0,1.58125594 0,2.37188394 0,2.371884 0,5.534396 0.79063,9.4875357 0.79063,3.95314 0.79063,7.115652 0.79063,9.487536 -0.79063,0 -0.79063,0.790628 -1.58126,1.581256 -1.58126,-0.790628 -2.37188,-0.790628 -3.95314,-0.790628 -2.37188,0 -3.95314,0.790628 -7.11565,1.581256 0,0 -0.79063,-0.790628 -1.58126,-1.581256 -0.79063,-21.3469557 -0.79063,-40.322027 0,-56.134587 0,-0.790628 0,-1.581256 0,-2.371884 0,-0.790628 0,-1.581256 0,-2.371884 0,-0.790628 0,-1.581256 0.79063,-2.371884 0,0 0.79063,-0.790628 1.58126,-0.790628 0.79062,0 0.79062,-0.790628 1.58125,-1.581256 0,0 0,0 0,0 1.58126,0 3.16251,0 3.16251,0.790628 2.37189,0 3.95314,0 5.5344,0 5.5344,1.581256 10.27816,3.95314 13.44068,6.325024 4.74376,3.162512 6.32502,7.115652 6.32502,11.85942 0,1.581256 0,3.162512 -0.79063,5.534396 0,0.790628 -0.79063,1.581256 -1.58125,3.162512 -0.79063,1.581256 -1.58126,2.371883 -1.58126,3.162511 -0.79063,0 -1.58126,0.790628 -2.37188,1.581256 0,1.5812565 -0.79063,2.3718844 -1.58126,2.3718844"
   id="path15302"
   inkscape:connector-curvature="0"
   style="stroke-width:7.90628004" /> <path
   data-v-3d3003f2=""
   d="m 577.47865,-35.365891 c -0.79063,0 -1.58126,-0.790628 -2.37189,-1.581256 0,0.790628 -0.79062,1.581256 -2.37188,2.371884 -1.58126,0.790628 -2.37188,1.581256 -2.37188,1.581256 0,3.95314 -0.79063,6.325024 -0.79063,7.115652 0,2.371884 0.79063,4.743768 1.58125,5.534396 2.37189,-3.162512 3.95314,-4.743768 3.95314,-4.743768 1.58126,-2.371884 2.37189,-4.743768 2.37189,-6.325024 0.79063,-1.581256 0.79063,-3.162512 0,-3.95314 M 570.363,10.490532 c 3.95314,-1.5812557 7.11565,-4.7437677 9.48753,-7.1156517 -0.79063,-2.371884 -2.37188,-3.95313993 -3.95314,-6.3250239 -1.58125,-1.581256 -3.16251,-3.162512 -4.74377,-4.743768 -1.58125,1.581256 -2.37188,3.162512 -3.16251,5.534396 -0.79063,2.37188396 -1.58125,4.7437679 -1.58125,7.1156519 -0.79063,2.371884 0.79062,4.743768 3.95314,5.5343957 m 7.90628,-26.090723 c 0.79062,1.581256 2.37188,3.162511 3.16251,5.534395 1.58125,2.3718844 2.37188,3.1625124 3.95314,3.9531404 v -2.371884 c 0,-0.7906279 0.79063,-1.5812564 1.58125,-2.3718844 1.58126,1.5812565 4.74377,2.3718844 9.48754,2.3718844 -0.79063,3.95314 -1.58126,7.90627997 -3.95314,11.8594199 0.79063,1.581256 2.37188,3.162512 3.95314,4.743768 1.58126,1.581256 3.16251,2.3718837 4.74377,3.9531397 0.79063,0 0.79063,0 1.58125,0 0.79063,0 0.79063,0.790628 1.58126,0.790628 0,0.790628 0.79063,1.581256 1.58126,3.162512 0,0 -0.79063,0 -0.79063,0.790628 0,0 -0.79063,0 -0.79063,0 0,0 -0.79063,0 -0.79063,0 0,0 0,0 -0.79063,0 -0.79062,0.790628 -1.58125,1.581256 -3.16251,2.371884 -1.58125,0.790628 -2.37188,1.581256 -3.95314,2.371884 -1.58125,-0.790628 -3.95314,-2.371884 -5.53439,-4.743768 -1.58126,-1.581256 -3.16252,-3.95314 -4.74377,-5.534396 -2.37189,0.790628 -3.95314,2.371884 -6.32503,3.162512 -3.16251,1.581256 -5.53439,2.371884 -7.90628,2.371884 -3.95314,0 -8.6969,-0.790628 -12.65004,-3.95314 -0.79063,-1.581256 -1.58126,-3.1625117 -1.58126,-3.9531397 -0.79063,-1.581256 -0.79063,-3.162512 -1.58126,-3.95314 0,-1.581256 0,-2.371884 0,-3.162512 0,-3.1625119 1.58126,-6.3250239 3.16252,-9.4875359 1.58125,-2.3718844 3.95314,-4.7437684 6.32502,-7.1156514 0,-0.790628 -0.79063,-1.581256 -0.79063,-2.371884 0,-0.790628 -0.79063,-1.581256 -0.79063,-2.371884 -0.79062,-0.790628 -0.79062,-3.162512 -0.79062,-6.325024 0,-2.371884 0,-4.743768 0.79062,-7.115652 0.79063,-2.371884 1.58126,-3.95314 2.37189,-5.534396 0.79063,0 1.58125,-0.790628 2.37188,-1.581256 0,-0.790628 0.79063,-0.790628 1.58126,-1.581256 0.79063,-0.790628 3.16251,-1.581256 6.32502,-2.371884 3.16251,0 6.32503,0.790628 8.69691,3.162512 2.37188,2.371884 3.16251,4.743768 3.16251,7.90628 0,3.162512 -0.79063,6.325024 -3.16251,9.487536 -1.58126,1.581256 -3.95314,3.95314 -6.32502,7.90628"
   id="path15304"
   inkscape:connector-curvature="0"
   style="stroke-width:7.90628004" /> <path
   data-v-3d3003f2=""
   d="m 643.10077,12.071788 c 1.58126,-0.790628 3.16251,-0.790628 4.74377,-2.3718837 1.58125,-0.790628 2.37188,-1.581256 3.95314,-3.162512 0,-0.790628 0.79063,-1.581256 0.79063,-1.581256 0,-0.790628 0.79062,-0.790628 1.58125,-0.790628 1.58126,-4.74376793 2.37189,-8.6969079 2.37189,-13.4406758 0,-0.7906285 0,-1.5812565 0,-3.1625125 0,0 0,-0.790628 -0.79063,-1.581255 0,-0.790628 -0.79063,-1.581256 -0.79063,-1.581256 0,-0.790628 0,-2.371884 -0.79063,-3.162512 0,-0.790628 -0.79063,-2.371884 -1.58125,-3.162512 -0.79063,-0.790628 -1.58126,-0.790628 -2.37189,-1.581256 0,0 0,-0.790628 0,-0.790628 0,0 -0.79063,0 -1.58125,-0.790628 -2.37189,-2.371884 -3.95314,-3.162512 -4.74377,-3.162512 -0.79063,15.812559 -0.79063,29.2532353 -0.79063,40.322027 m -13.44067,8.696908 c 0,-2.371884 0,-3.95314 0,-6.325024 0,-3.162512 -0.79063,-6.3250237 -0.79063,-9.4875357 0,-2.371884 0,-6.3250239 0,-11.0687919 0,-4.7437684 0,-8.6969074 0,-11.0687914 0,-5.534396 -0.79063,-9.487536 -0.79063,-13.440676 0,-0.790628 0,-1.581256 0,-1.581256 0,-0.790628 0,-2.371884 0,-3.95314 0,-1.581256 0,-3.162512 0,-3.95314 0,-1.581256 0,-3.162512 0.79063,-4.743768 7.90628,0.790628 14.2313,2.371884 18.97507,3.162512 7.11565,3.95314 12.65005,8.696908 17.39381,14.231304 3.16252,3.95314 5.5344,9.487536 5.5344,15.021931 0,1.581256 0,3.1625125 -0.79063,4.7437684 0,0 0,0.790628 -0.79063,1.581256 0,0.790628 0,1.581256 -0.79062,3.162512 0,1.581256 -0.79063,2.37188397 -0.79063,3.16251196 0,0 0,0.79062794 0,0.79062794 -0.79063,0.790628 -1.58126,1.581256 -2.37189,4.743768 -4.74376,6.3250237 -8.6969,10.2781637 -11.85942,12.6500477 -2.37188,0.790628 -4.74376,1.581256 -7.11565,2.371884 -3.16251,0.790628 -5.53439,1.581256 -7.90628,1.581256 0,0 -3.16251,0 -8.6969,-1.581256"
   id="path15306"
   inkscape:connector-curvature="0"
   style="stroke-width:7.90628004" /> <path
   data-v-3d3003f2=""
   d="m 706.35101,-44.062799 c 0,4.743768 0.79063,8.696908 0.79063,11.85942 0,0 -0.79063,0.790628 -1.58126,1.581256 -1.58125,-0.790628 -3.16251,-1.581256 -6.32502,-0.790628 -0.79063,0 -2.37189,0 -4.74377,0 -1.58126,0 -3.16251,0 -3.95314,0 0,3.162512 0,7.115652 0.79063,11.068792 0,0 1.58125,0 4.74377,-0.790628 2.37188,0 3.95314,-0.790628 4.74376,-2.371884 0.79063,0 0.79063,0 0.79063,0.790628 0,0.790628 0.79063,1.581256 0.79063,1.581256 0,0.790628 0,2.371884 0,3.162512 0,1.581256 0,3.162512 0.79063,4.743767 0.79063,2.371884 0.79063,4.7437684 0.79063,5.5343964 0,0.790628 -0.79063,0.790628 -1.58126,0.790628 -0.79063,0 -1.58126,0 -2.37188,0.790628 -0.79063,-0.790628 -0.79063,-0.790628 -1.58126,-0.790628 -0.79063,0 -1.58126,0 -2.37188,0.790628 -1.58126,0.790628 -1.58126,0.790628 -2.37189,0.790628 0,0.790628 0,1.581256 0,2.371884 0,0.790628 0,1.581256 0,3.16251196 0,1.58125594 0,2.37188394 0,3.16251194 0,0.790628 0,0.790628 0,1.581256 5.5344,0.790628 11.06879,0.790628 16.60319,0 0.79063,0.790628 0.79063,2.371884 0.79063,3.95314 0,0.790628 0,1.5812557 0,3.1625117 0,1.581256 0,2.371884 0,3.162512 0,0.790628 0,0.790628 0,1.581256 0,1.581256 0,3.162512 0,3.95314 -0.79063,0 -0.79063,0 -1.58126,0.790628 0,0 -0.79063,0 -0.79063,0 0,0 -0.79062,0 -0.79062,0 -0.79063,0 -2.37189,0 -4.74377,0.790628 -1.58126,0 -3.16251,0.790628 -3.95314,1.581256 -0.79063,0 -1.58126,0 -2.37189,0 -0.79062,0 -2.37188,0 -3.95314,0 -1.58125,0 -2.37188,0 -3.16251,0 -1.58125,0 -3.16251,0 -3.95314,-0.790628 0,0 -0.79063,0.790628 -1.58125,0.790628 -1.58126,-0.790628 -3.16252,-0.790628 -4.74377,-0.790628 -0.79063,-0.790628 -1.58126,-2.371884 -2.37189,-4.743768 0,-1.581256 0,-3.95314 -0.79062,-7.115652 0,-3.1625117 0,-4.7437677 0,-6.3250237 -0.79063,-2.371884 -0.79063,-5.53439593 0,-10.2781639 0,-4.7437684 0,-7.9062804 -0.79063,-10.2781634 0.79063,-2.371884 0.79063,-4.743768 0.79063,-7.90628 0,-3.162512 0,-5.534396 0,-8.696908 0,-4.743768 0.79062,-8.696908 1.58125,-11.068792 0,0 0,0 0.79063,0 0,0 0,0 0.79063,0 0,0 0.79063,0 0.79063,0 0.79062,0 0.79062,-0.790628 1.58125,-0.790628 0.79063,0 2.37189,0 3.95314,0.790628 1.58126,0.790628 3.16251,0.790628 3.95314,0.790628 0.79063,0 1.58126,0 2.37189,0 0.79062,0.790628 0.79062,0.790628 1.58125,0.790628 0.79063,0 0.79063,0 2.37189,0 0.79062,0 1.58125,0 2.37188,0 0.79063,0 0.79063,0 1.58126,0 0.79062,0 1.58125,0 1.58125,0 1.58126,0 2.37189,-0.790628 2.37189,-1.581256 0,0 0.79062,0 1.58125,0 0,-0.790628 0,-0.790628 0.79063,-0.790628"
   id="path15308"
   inkscape:connector-curvature="0"
   style="stroke-width:7.90628004" /> <path
   data-v-3d3003f2=""
   d="m 731.65111,-42.481543 c 0,0 0,0.790628 -0.79063,2.371884 0,2.371884 0,7.115652 0,11.85942 0,0.790628 0,2.371884 0.79063,4.743768 0,1.581256 0,3.162512 0,3.95314 0,0.790628 0,2.371884 0,3.95314 0,2.371883 0.79062,10.2781634 1.58125,22.9282113 1.58126,0 4.74377,-0.790628 8.69691,-1.581256 3.95314,-0.790628 6.32502,-0.790628 9.48754,-2.371884 0.79062,0.790628 0.79062,2.371884 0.79062,3.95314 0,0.790628 0,1.581256 0,2.371884 0,0.7906277 0,1.5812557 0,2.3718837 0,0.790628 0,0.790628 0,1.581256 0,0.790628 0,1.581256 0.79063,2.371884 0,0.790628 0.79063,1.581256 0.79063,2.371884 0,0.790628 0,1.581256 -0.79063,2.371884 -0.79063,0 -1.58125,0 -1.58125,0.790628 -2.37189,-0.790628 -6.32503,-1.581256 -11.0688,-1.581256 -1.58125,0 -3.95314,0 -7.90628,0 -3.16251,0 -5.53439,0 -7.11565,0 -0.79063,0.790628 -1.58125,0.790628 -3.16251,1.581256 -0.79063,0 -1.58126,0 -3.95314,0 0,0 0,-0.790628 -0.79063,-0.790628 -0.79063,0 -0.79063,-0.790628 -0.79063,-0.790628 0.79063,-1.581256 1.58126,-3.162512 0.79063,-6.325024 0,-3.162512 0,-7.9062797 0.79063,-13.44067564 0.79063,-7.90627996 0.79063,-12.65004836 0.79063,-15.02193136 0,-3.95314 0,-10.278164 0,-18.184444 0,-0.790628 0,-2.371884 0,-3.95314 0,-1.581256 0,-2.371884 0,-3.162512 0,-1.581256 0,-2.371884 0.79063,-3.162512 0.79062,0 2.37188,-0.790628 3.95314,-1.581256 1.58125,-0.790628 3.16251,-0.790628 3.95314,-0.790628 1.58125,0.790628 2.37188,1.581256 3.95314,3.162512"
   id="path15310"
   inkscape:connector-curvature="0"
   style="stroke-width:7.90628004" /> <path
   data-v-3d3003f2=""
   d="m 776.7169,20.768696 c -7.90628,0.790628 -13.44067,1.581256 -15.81256,1.581256 -0.79063,-0.790628 -0.79063,-1.581256 -0.79063,-2.371884 0,-0.790628 0,-0.790628 0,-1.581256 0,-0.790628 0,-1.581256 0,-1.581256 0,-0.790628 0,-2.371884 -0.79062,-2.371884 0,-5.5343957 0.79062,-10.2781637 0.79062,-15.8125596 0,-6.325024 0,-12.6500474 -0.79062,-19.7656994 0,-1.581256 0,-3.162512 0,-4.743768 0,-2.371884 0,-3.95314 0,-4.743768 0,-3.162512 0,-6.325024 -0.79063,-9.487536 0,-0.790628 0.79063,-1.581256 1.58125,-2.371884 0.79063,0.790628 1.58126,0.790628 2.37189,0.790628 0,0 1.58125,0 3.95314,-0.790628 1.58125,0 2.37188,0 3.95314,0 0.79063,0 1.58125,-0.790628 1.58125,-0.790628 0.79063,0.790628 1.58126,0.790628 1.58126,2.371884 0,0 0,0.790628 0,3.162512 0,2.371884 0,8.696908 0.79063,19.7657 0,1.581256 0.79063,3.95314 0.79063,7.115651 0,1.5812565 0,3.9531404 0.79062,7.1156524 0,3.16251197 0.79063,5.5343959 0.79063,7.1156519 0,0.790628 0,1.581256 0,3.162512 0,1.581256 0,2.371884 0,3.162512 0,2.3718837 0,5.5343957 0.79063,11.0687917 -0.79063,-1.581256 -0.79063,-0.790628 -0.79063,0"
   id="path15312"
   inkscape:connector-curvature="0"
   style="stroke-width:7.90628004" /> <path
   data-v-3d3003f2=""
   d="m 813.87642,8.1186483 c 0,-1.581256 0.79063,-3.162512 0,-5.534396 0,0 0,0 0,0 0,0 0,0 0.79063,0 0,0 0,0 0.79062,-0.790628 0.79063,0 1.58126,0 2.37189,0 0.79063,0 2.37188,0 3.16251,0 0,0 0.79063,0 0.79063,0 0,0 0,-0.790628 0,-0.790628 0.79063,0 1.58125,0 3.16251,0.790628 0,1.581256 0,3.162512 0,6.325024 0,3.1625117 0,4.7437677 0,5.5343957 0,0.790628 -0.79063,1.581256 -1.58126,3.162512 -0.79062,1.581256 -1.58125,2.371884 -2.37188,3.162512 0,0 -0.79063,0 -1.58126,0.790628 -0.79062,0 -0.79062,0.790628 -0.79062,0.790628 h -1.58126 c -1.58126,0 -3.16251,0 -4.74377,0.790628 -7.90628,-0.790628 -13.44067,-2.371884 -16.60319,-4.743768 0,-0.790628 -0.79062,-0.790628 -0.79062,-1.581256 -0.79063,-0.790628 -0.79063,-0.790628 -0.79063,-1.581256 0,0 0,0 0,0 0,0 0,0 0,0.790628 -2.37189,-3.95314 -3.95314,-6.3250237 -3.95314,-7.9062797 -1.58126,-3.162512 -2.37189,-6.325024 -3.16251,-9.4875359 0,0 0,-0.790628 0,-0.790628 0,0 0,0 -0.79063,-0.790628 0,-1.581256 0,-3.162512 -0.79063,-3.162512 0,-1.581256 0.79063,-3.9531404 0.79063,-7.1156514 0,-3.162512 0,-5.534396 0.79063,-7.115652 0.79062,-5.534396 3.16251,-10.278164 6.32502,-15.021932 3.95314,-4.743768 7.90628,-7.90628 12.65005,-8.696908 0.79063,0 0.79063,0 1.58125,0 2.37189,0 3.95314,0.790628 5.5344,1.581256 1.58126,0 3.16251,0.790628 5.5344,1.581256 1.58125,0.790628 3.16251,2.371884 3.95314,3.95314 0.79062,0.790628 0,1.581256 -0.79063,3.162512 0,0.790628 -0.79063,1.581256 -0.79063,3.162512 0,0 -0.79063,0.790628 -1.58126,1.581256 0,0.790628 -0.79062,1.581256 -0.79062,3.162512 0,0.790628 -0.79063,1.581256 -1.58126,1.581256 -2.37188,-2.371884 -3.16251,-3.162512 -3.16251,-3.162512 -1.58126,-1.581256 -3.16251,-1.581256 -4.74377,-1.581256 -0.79063,0 -0.79063,0 -1.58126,0 0,0 0,0 0,0 -0.79062,0 -1.58125,0 -2.37188,0.790628 -0.79063,0.790628 -2.37188,1.581256 -2.37188,1.581256 -1.58126,3.95314 -2.37189,9.487536 -2.37189,15.021931 0,1.581256 0,3.1625125 0,4.7437684 0,2.371884 0.79063,5.534396 1.58126,8.6969079 0.79063,3.162512 2.37188,4.743768 3.95314,6.325024 0.79063,0.790628 2.37188,1.581256 3.16251,1.581256 0,0 0.79063,0 0.79063,0 0.79063,0 1.58125,0 2.37188,-0.790628 0,0 0.79063,0 1.58126,0"
   id="path15314"
   inkscape:connector-curvature="0"
   style="stroke-width:7.90628004" /> <path
   data-v-3d3003f2=""
   d="m 848.66405,20.768696 c -7.90628,0.790628 -13.44068,1.581256 -15.81256,1.581256 -0.79063,-0.790628 -0.79063,-1.581256 -0.79063,-2.371884 0,0 0,-0.790628 0,-1.581256 0,-0.790628 0,-1.581256 0,-1.581256 0,-0.790628 0,-2.371884 -0.79063,-2.371884 0,-5.5343957 0.79063,-10.2781637 0.79063,-15.8125596 0,-6.325024 0,-12.6500474 -0.79063,-19.7656994 0,-1.581256 0,-3.162512 0,-4.743768 0,-2.371884 0,-3.95314 0,-4.743768 0,-3.162512 0,-6.325024 -0.79062,-9.487536 0,-0.790628 0.79062,-1.581256 1.58125,-2.371884 0.79063,0.790628 1.58126,0.790628 2.37188,0.790628 0,0 1.58126,0 3.95314,-0.790628 1.58126,0 2.37189,0 3.95314,0 0.79063,0 1.58126,-0.790628 1.58126,-0.790628 0.79063,0.790628 1.58126,0.790628 1.58126,2.371884 0,0 0,0.790628 0,3.162512 0,2.371884 0,8.696908 0.79062,19.7657 0,1.581256 0.79063,3.95314 0.79063,7.115651 0,1.5812565 0,3.9531404 0.79063,7.1156524 0,3.16251197 0.79063,5.5343959 0.79063,7.1156519 0,0.790628 0,1.581256 0,3.162512 0,1.581256 0,2.371884 0,3.162512 0,2.3718837 0,5.5343957 0.79063,11.0687917 -1.58126,-1.581256 -1.58126,-0.790628 -0.79063,0"
   id="path15316"
   inkscape:connector-curvature="0"
   style="stroke-width:7.90628004" /> <path
   data-v-3d3003f2=""
   d="m 888.19545,-4.5313996 c 0.79063,-4.7437679 1.58125,-9.4875354 1.58125,-13.4406754 0,-1.581256 0,-3.162512 0,-3.95314 0,-1.581256 -0.79062,-3.162512 -2.37188,-4.743768 -2.37188,-2.371884 -3.16251,-3.95314 -3.16251,-4.743768 -0.79063,0 -1.58126,-0.790628 -1.58126,-0.790628 -1.58125,0 -3.95314,0.790628 -6.32502,3.162512 0,0 0,0.790628 0,0.790628 0,0 0,0.790628 0,0.790628 -0.79063,0.790628 -2.37189,2.371884 -3.95314,5.534396 -0.79063,0.790628 -1.58126,2.371884 -2.37189,3.95314 0,0.790628 0,1.581256 0,2.371884 -0.79062,0.790628 -0.79062,2.371883 -1.58125,3.953139 0,0 0.79063,0 0.79063,0 -0.79063,3.1625124 -0.79063,5.5343964 -0.79063,8.6969084 0,4.7437679 0.79063,7.9062799 3.16251,11.0687919 1.58126,1.581256 2.37188,2.3718837 3.16251,3.9531397 0.79063,0 1.58126,0 2.37189,0.790628 0.79062,0 1.58125,0.790628 1.58125,0.790628 0.79063,0 0.79063,0 0.79063,0 0,0 0,0 0,-0.790628 0,0 0,0 0,0 0,0 0,0.790628 0.79063,0.790628 0.79063,0 1.58125,-0.790628 2.37188,-1.581256 0.79063,-0.790628 1.58126,-1.581256 2.37189,-1.581256 0,0 0.79062,-2.3718837 3.16251,-6.3250237 -0.79063,-3.95313994 0,-6.3250239 0,-8.6969079 m -0.79063,-40.3220274 c 1.58126,1.581256 3.16251,2.371884 4.74377,3.162512 3.95314,5.534396 7.11565,10.278164 9.48753,15.81256 0.79063,3.95314 0.79063,8.696908 0.79063,12.650047 0,5.5343964 -0.79063,10.2781644 -1.58125,13.44067636 -1.58126,4.74376794 -3.95314,8.69690794 -7.11566,12.65004764 -0.79062,0 -1.58125,0.790628 -3.16251,2.371884 -0.79063,1.581256 -2.37188,2.371884 -2.37188,2.371884 -0.79063,0 -1.58126,0.790628 -2.37189,0.790628 -0.79062,0.790628 -2.37188,1.581256 -4.74376,3.162512 -0.79063,0 -2.37189,0 -3.95314,0 -1.58126,0 -3.16252,0 -3.95314,0 -3.95314,0 -8.69691,-2.371884 -12.65005,-6.325024 -3.95314,-4.743768 -5.5344,-11.8594197 -5.5344,-20.5563276 0,-7.1156524 0.79063,-12.6500474 3.16251,-18.1844434 0,0 0.79063,-1.581256 2.37189,-4.743768 0.79063,-1.581256 1.58125,-3.162512 1.58125,-4.743768 0,0 1.58126,-1.581256 3.95314,-4.743768 0.79063,-0.790628 2.37189,-2.371884 3.95314,-4.743768 2.37189,-2.371884 6.32503,-3.95314 11.85942,-3.95314 2.37189,0.790628 3.95314,0.790628 5.5344,1.581256"
   id="path15318"
   inkscape:connector-curvature="0"
   style="stroke-width:7.90628004" /> <path
   data-v-3d3003f2=""
   d="m 948.28318,3.3748803 c -0.79063,1.581256 -0.79063,3.162512 -1.58126,6.325024 -0.79063,0.7906277 -1.58126,1.5812557 -2.37188,3.9531397 -0.79063,1.581256 -1.58126,3.162512 -2.37189,3.95314 -0.79063,0.790628 -2.37188,1.581256 -3.95314,2.371884 -2.37188,0.790628 -3.95314,1.581256 -3.95314,1.581256 -0.79063,0 -1.58125,0 -2.37188,0 -3.95314,0 -7.90628,-1.581256 -11.85942,-3.95314 -3.16251,-2.371884 -5.5344,-5.534396 -7.90628,-9.4875357 -2.37189,-7.115652 -3.95314,-16.6031879 -3.95314,-30.0438633 0,-0.790628 0,-2.371884 0,-3.95314 0,-1.581256 -0.79063,-3.95314 -0.79063,-7.115652 0,-0.790628 0,-1.581256 0,-2.371884 0,-0.790628 0,-1.581256 0,-2.371884 0,-0.790628 0,-1.581256 -0.79063,-2.371884 0,-0.790628 0.79063,-1.581256 1.58126,-2.371884 0.79063,-0.790628 1.58125,-1.581256 1.58125,-1.581256 0,0 0.79063,0 2.37189,0.790628 1.58125,0.790628 2.37188,0.790628 3.16251,0.790628 0.79063,0 1.58126,0 2.37188,-0.790628 0.79063,0 0.79063,0.790628 1.58126,1.581256 0.79063,0.790628 0.79063,0.790628 0.79063,1.581256 -1.58126,2.371884 -2.37189,6.325024 -2.37189,12.650048 0,4.743768 0.79063,9.487536 1.58126,15.021931 0.79063,1.581256 0.79063,3.1625125 1.58126,6.3250244 0.79062,3.162512 1.58125,5.53439597 2.37188,8.6969079 0.79063,3.162512 2.37188,4.743768 4.74377,5.534396 0,0 0.79063,0 0.79063,0 0.79062,0 3.16251,-0.790628 5.53439,-1.581256 0.79063,-3.162512 1.58126,-7.11565193 1.58126,-11.0687919 0,-0.790628 0,-2.371884 0,-4.7437679 0,-1.5812565 0,-3.1625125 0,-4.7437675 0,0 0,-0.790628 0,-0.790628 0,-0.790628 0,-0.790628 0,-0.790628 0,0 -0.79063,-0.790628 -0.79063,-1.581256 0,-0.790628 0,-2.371884 0,-3.95314 0,-3.162512 0,-5.534396 0,-8.696908 0,-3.95314 -0.79063,-7.115652 -1.58126,-9.487536 0,-0.790628 0,-0.790628 0.79063,-1.581256 0,-0.790628 0,-1.581256 0,-1.581256 0,0 0.79063,0 1.58126,-0.790628 0.79063,-0.790628 1.58125,-0.790628 1.58125,-0.790628 1.58126,0 2.37189,0 3.95314,0.790628 1.58126,0.790628 2.37189,0.790628 2.37189,0.790628 0,0 0.79063,0 1.58125,0 1.58126,0.790628 2.37189,1.581256 2.37189,2.371884 0,1.581256 0,3.162512 0,4.743768 0.79063,11.85942 0.79063,18.975072 0.79063,21.346956 0,3.953139 0,7.1156514 -0.79063,9.4875354 0,0.790628 -0.79063,2.371884 -0.79063,4.74376796 1.58126,0.79062794 0.79063,2.37188394 1.58126,3.16251194"
   id="path15320"
   inkscape:connector-curvature="0"
   style="stroke-width:7.90628004" /> <path
   data-v-3d3003f2=""
   d="m 993.34897,-38.528403 c -0.79063,1.581256 -0.79063,1.581256 -0.79063,1.581256 0,0 0,0.790628 0.79063,0.790628 -0.79063,0 -2.37188,0.790628 -2.37188,2.371884 0,0 -0.79063,1.581256 -0.79063,3.95314 -0.79063,0.790628 -1.58126,0.790628 -2.37188,0.790628 -1.58126,0 -3.16252,-0.790628 -5.5344,-2.371884 -2.37188,-1.581256 -3.95314,-2.371884 -5.5344,-2.371884 -0.79062,0 -1.58125,0 -2.37188,0.790628 -0.79063,0.790628 -0.79063,0.790628 -1.58126,1.581256 -0.79062,0.790628 -0.79062,0.790628 -0.79062,1.581256 1.58125,2.371884 4.74376,4.743768 9.48753,6.325024 3.95314,1.581256 7.11565,3.162512 11.06879,4.743768 0.79063,0.790628 1.58126,1.581256 2.37189,1.581256 1.58125,2.371884 3.16251,4.743767 3.95314,6.325023 0.79063,2.3718844 1.58123,4.7437684 0.79063,7.9062804 0,2.37188397 0,3.9531399 0,4.7437679 0,1.581256 -0.79063,3.162512 -0.79063,3.95314 -1.58126,3.95314 -4.74377,7.9062797 -8.69691,11.8594197 -2.37188,0.790628 -4.74377,1.581256 -7.11565,1.581256 -2.37189,0.790628 -5.5344,0.790628 -7.11565,0.790628 -0.79063,0 -1.58126,0 -1.58126,0 -0.79063,0 -1.58126,0 -2.37188,-0.790628 -0.79063,0 -1.58126,0 -2.37189,0 -0.79063,0 -1.58125,0 -2.37188,0.790628 0,0 -0.79063,0 -2.37189,0 -0.79062,0 -1.58125,0 -2.37188,0 -3.95314,0 -6.32502,-0.790628 -6.32502,-3.162512 0.79062,-3.162512 2.37188,-6.325024 3.16251,-10.2781637 0,0 0.79063,-3.95314 1.58125,-11.0687919 0,0 0.79063,0 2.37189,0 0,0.790628 0.79063,0.790628 0.79063,1.581256 0,0.790628 0,0.790628 0,1.581256 0.79062,1.58125596 2.37188,2.3718839 3.95314,3.9531399 1.58125,0.790628 3.16251,1.581256 4.74376,2.371884 2.37189,0 5.5344,-0.790628 7.90628,-1.581256 3.16252,-1.581256 4.74377,-3.16251194 4.74377,-5.5343959 0,-1.581256 -0.79063,-3.162512 -2.37188,-5.534396 -1.58126,-1.5812559 -3.16251,-2.3718844 -5.5344,-3.1625124 0,0 -0.79063,0 -1.58125,0 -0.79063,-0.790628 -3.16252,-1.581256 -5.5344,-3.162511 -2.37188,-0.790628 -3.95314,-1.581256 -6.32502,-3.162512 -2.37189,-0.790628 -3.95314,-2.371884 -5.5344,-3.95314 -0.79063,-3.162512 -0.79063,-6.325024 -0.79063,-8.696908 0,-1.581256 0,-3.162512 0.79063,-3.95314 2.37188,-3.95314 4.74377,-7.115652 8.69691,-9.487536 0,0 0,0 0,0 0,0 0,0 0.79063,0 0,0 0,0 0,0 0,0 0,0 0,0 3.95314,-2.371884 7.90628,-3.162512 12.65004,-3.162512 2.37189,0 3.95314,0 5.5344,0.790628 1.58126,0.790628 3.16251,1.581256 4.74377,2.371884 0,2.371884 0.79063,3.95314 2.37188,4.743768"
   id="path15322"
   inkscape:connector-curvature="0"
   style="stroke-width:7.90628004" />  </g></svg>