<?xml version="1.0" encoding="UTF-8"?>
<svg width="132.29mm" height="158.03mm" version="1.1" viewBox="0 0 132.29137 158.03196" xmlns="http://www.w3.org/2000/svg" xmlns:cc="http://creativecommons.org/ns#" xmlns:dc="http://purl.org/dc/elements/1.1/" xmlns:rdf="http://www.w3.org/1999/02/22-rdf-syntax-ns#"><metadata><rdf:RDF><cc:Work rdf:about=""><dc:format>image/svg+xml</dc:format><dc:type rdf:resource="http://purl.org/dc/dcmitype/StillImage"/><dc:title/></cc:Work></rdf:RDF></metadata><g fill="#231f20" stroke-width="1.3393"><path d="m123.28 57.538c0 31.777-25.761 57.538-57.538 57.538s-57.538-25.761-57.538-57.538 25.761-57.538 57.538-57.538 57.538 25.761 57.538 57.538"/><path d="m118.52 16.968c-3.6474 0-6.4847-2.8417-6.4847-6.4951 0-3.4508 2.8373-6.2925 6.4847-6.2925 3.4449 0 6.2807 2.8417 6.2807 6.2925 0 3.6534-2.8358 6.4951-6.2807 6.4951m0-12.179c-3.241 0-5.673 2.6377-5.673 5.6834 0 3.2483 2.4322 5.6834 5.673 5.6834 3.0383 0 5.673-2.4351 5.673-5.6834 0-3.0458-2.6348-5.6834-5.673-5.6834"/><path d="m115.68 6.6148h3.6459c2.027 0 2.4321 1.4208 2.4321 2.03 0 1.0143-0.40528 1.6235-1.2169 1.8275 0.6077 0.40487 1.0128 0.60765 1.0128 1.826 0 1.2183 0 1.4208 0.20392 1.6234v0.20392h-1.6204c-0.20392-0.40655-0.20392-0.81318-0.20392-1.6234 0-1.0158 0-1.4223-1.2154-1.4223h-1.6219v3.0458h-1.4164zm3.2408 3.2483c0.81173 0 1.2168-0.20392 1.2168-1.0157 0-0.4053-0.20392-1.0143-1.0128-1.0143h-2.0285v2.03z"/></g><g stroke-width="1.3393"><path d="m47.003 135.1c1.0113-0.40656 3.6474-1.6234 3.6474-5.0758 0-2.2311-0.81169-3.652-2.027-4.6677-1.6204-1.2183-3.2408-1.2183-5.8741-1.2183h-5.8771v18.675h3.2408v-7.1043h3.4449l3.8484 7.1043h3.6476l-4.2552-7.7135zm-1.0128-2.4366c-0.81169 0.40656-1.6204 0.40656-2.0255 0.40656h-3.8515v-6.2926h1.8245c2.027 0 3.0398 0 3.8484 0.40656 1.6204 0.81173 1.6204 2.2311 1.6204 2.6392v0.20096c0 1.4223-0.60765 2.2341-1.4164 2.6392m-16.004 10.149h3.0383v-18.675h-3.0383zm-26.742-16.037h9.1149v-2.6392h-12.357v18.675h3.2424v-8.12h7.8997v-2.6377h-7.8997zm14.384-2.6384-6.2807 18.675h3.2409l1.2153-3.8574h7.4975l1.0113 3.8574h3.4449l-6.4847-18.675zm4.8612 12.18h-5.8741l2.8358-9.7434 2.8342 9.5395zm66.652-12.181-6.2813 18.675h3.2408l1.2168-3.8574h7.4945l1.0143 3.8574h3.442l-6.4818-18.675zm-1.0142 12.18 2.8358-9.7434 3.0398 9.7434zm-36.465-9.3383h5.2649v15.833h3.0398v-15.833h5.2663v-2.8417h-13.571zm80.629-0.20264v-2.6392h-13.167v18.675h13.167v-2.8432h-9.9267v-5.4794h9.1179v-2.6392h-9.1179v-5.0743zm-19.246-1.2174c-1.8245-1.4223-3.85-1.4223-5.4719-1.4223h-6.6857v18.675h5.8771c2.228 0 4.2536 0 6.0766-1.2183 2.8373-1.4223 3.85-4.8718 3.85-7.916 0-2.2326-0.4053-5.8859-3.6459-8.1185m0.20096 8.1185c0 4.0586-1.4179 5.2769-2.8373 5.886-1.0113 0.20265-1.8216 0.4053-4.6572 0.4053h-1.6204v-12.99h2.0241c2.4321 0 3.0398 0 4.0526 0.40657 2.8373 1.4208 3.0383 4.4652 3.0383 6.2926m-35.656 1.4208c1.0128-0.40655 3.6474-1.6234 3.6474-5.0758 0-2.2311-0.8117-3.652-2.027-4.6677-1.6204-1.2183-3.2408-1.2183-5.8741-1.2183h-5.8771v18.675h3.2439v-7.1042h3.442l3.8515 7.1042h3.6459l-4.2537-7.7135zm-1.0128-2.4366c-0.80874 0.40658-1.8245 0.40658-2.0255 0.40658h-3.8486v-6.2927h1.8216c2.027 0 3.0398 0 3.8484 0.40655 1.6235 0.81171 1.6235 2.2311 1.6235 2.6392v0.20096c0 1.4223-0.60764 2.2341-1.4194 2.6392" fill="#110b09"/><path d="m105.96 91.255c7.7001-9.1343 12.359-21.311 12.359-34.101 0-6.4937-1.0128-12.786-3.2424-18.47-7.0894-19.485-26.337-33.896-48.214-33.896h-1.4194c-4.0526 0.20265-8.3063 0.81169-11.547 1.826-1.6204 0.60918-7.0909 2.4367-11.142 6.4951-4.2567 4.4667-6.8898 10.555-6.8898 17.253 0 10.758 7.2934 19.689 17.424 23.748 4.2536 1.8275 9.1164 2.8417 12.558 3.6534 6.0781 1.4223 18.639 3.6549 29.174 10.555l0.40528 0.40657c6.6859 4.4651 10.534 11.163 10.534 21.718m-32.009-37.347c-7.496 0-13.775-6.09-13.775-13.803 0-7.5094 6.2791-13.804 13.775-13.804 7.6985 0 13.775 6.2941 13.775 13.804 0 7.712-6.0766 13.803-13.775 13.803" fill="#4ab5de"/><path d="m13.98 57.359c0-14.005 5.4719-26.792 14.182-36.129-1.0128 2.8417-2.6332 8.3226-2.6332 14.411 0 6.9018 2.0255 15.222 9.1149 22.734l1.4208 1.4208c10.129 10.758 19.244 20.297 19.244 33.288 0 4.2626-1.0128 9.1343-3.4449 14.411-21.879-6.2933-37.884-26.388-37.884-50.135" fill="#c2dc14"/><path d="m47.814 149.1c0-1.4208-0.60766-2.4366-1.4194-3.0458-1.0128-1.0142-2.2282-1.0142-3.8486-1.0142h-4.0526v12.585h2.4321v-4.6692h2.0241l2.6363 4.6692h2.6317l-2.8358-5.0758c0.81169-0.20096 2.4321-1.0142 2.4321-3.4495m-4.4577 2.0301h-2.4306v-4.0601h1.0113c1.4194 0 2.0285 0 2.6363 0.40657 0.80874 0.40528 0.80874 1.4208 0.80874 1.6234 0 1.826-1.6204 1.826-2.0255 2.03m14.384 2.8402-5.4705-8.9302h-2.228v12.585h2.228v-8.7277l5.4705 8.7277h2.0241v-12.585h-2.228zm-28.161-1.826h6.0766v-2.03h-6.0766v-2.8417h6.6842v-2.2326h-8.9139v12.585h9.322v-2.03h-7.0923zm-29.58 5.479h2.4321v-12.585h-2.4321zm16.614-10.353h3.2424v10.353h2.4292v-10.353h3.4434v-2.2326h-9.1149zm-3.6474 6.6976-5.673-8.9302h-2.0241v12.585h2.228l-0.20404-8.7277 5.4719 8.7277h2.228v-12.585h-2.4321zm103.52-8.9302-4.2521 12.585h2.6317l0.60917-2.4366h4.8628l0.60617 2.4366h2.4321l-4.2537-12.585zm-0.40361 8.1185 1.823-5.6819 1.6204 5.6819zm-7.2935 0.81173-5.469-8.9302h-2.2295v12.585h2.4321l-0.20265-8.7277 5.469 8.7277h2.027v-12.585h-2.228zm18.639 1.625v-10.555h-2.4321v12.585h7.2935v-2.03zm-55.712-8.3226h3.2393v10.353h2.4321v-10.353h3.442v-2.2326h-9.1134zm-6.2822-2.2326-4.2536 12.585h2.6332l0.60765-2.4366h4.6618l0.80874 2.4366h2.4321l-4.2567-12.585zm-0.40361 8.1185 1.823-5.6819 1.6204 5.6819zm17.423 4.4667h2.228v-12.585h-2.228zm10.534-12.788c-3.4449 0-6.0781 2.6392-6.0781 6.4937 0 1.625 0.4053 3.2483 1.6219 4.6692 1.4164 1.625 2.8358 2.0301 4.4562 2.0301 3.8486 0 5.8741-3.0443 5.8741-6.6991 0-4.2611-2.8373-6.4937-5.8741-6.4937m0 10.96c-2.027 0-3.6474-1.6235-3.6474-4.4667 0-2.6377 1.4194-4.4637 3.6474-4.4637 2.4292 0 3.6459 2.2326 3.6459 4.8718 0 2.8402-2.0255 4.0586-3.6459 4.0586" fill="#918f90"/></g></svg>
